<?xml version="1.0" encoding="UTF-8" standalone="no"?>
<!DOCTYPE svg PUBLIC "-//W3C//DTD SVG 1.1//EN"
 "http://www.w3.org/Graphics/SVG/1.1/DTD/svg11.dtd">
<!-- Generated by graphviz version 2.40.1 (20161225.0304)
 -->
<!-- Title: dependencies Pages: 1 -->
<svg width="1289pt" height="211pt"
 viewBox="0.00 0.00 1289.00 211.00" xmlns="http://www.w3.org/2000/svg" xmlns:xlink="http://www.w3.org/1999/xlink">
<g id="graph0" class="graph" transform="scale(1 1) rotate(0) translate(4 207)">
<title>dependencies</title>
<polygon fill="#ffffff" stroke="transparent" points="-4,4 -4,-207 1285,-207 1285,4 -4,4"/>
<text text-anchor="start" x="619.5091" y="-42.4" font-family="sans-serif" font-weight="bold" font-size="14.00" fill="#000000">Legend</text>
<polygon fill="#ffffb3" stroke="transparent" points="406.5,-10 406.5,-30 426.5,-30 426.5,-10 406.5,-10"/>
<text text-anchor="start" x="430.129" y="-15.4" font-family="sans-serif" font-size="14.00" fill="#000000"> &#160;Declarations</text>
<polygon fill="#8dd3c7" stroke="transparent" points="519.5,-10 519.5,-30 539.5,-30 539.5,-10 519.5,-10"/>
<text text-anchor="start" x="543.2251" y="-15.4" font-family="sans-serif" font-size="14.00" fill="#000000"> &#160;Module</text>
<polygon fill="#80b1d3" stroke="transparent" points="605.5,-10 605.5,-30 625.5,-30 625.5,-10 605.5,-10"/>
<text text-anchor="start" x="629.2812" y="-15.4" font-family="sans-serif" font-size="14.00" fill="#000000"> &#160;Bootstrap</text>
<polygon fill="#fdb462" stroke="transparent" points="702.5,-10 702.5,-30 722.5,-30 722.5,-10 702.5,-10"/>
<text text-anchor="start" x="726.1732" y="-15.4" font-family="sans-serif" font-size="14.00" fill="#000000"> &#160;Providers</text>
<polygon fill="#fb8072" stroke="transparent" points="798.5,-10 798.5,-30 818.5,-30 818.5,-10 798.5,-10"/>
<text text-anchor="start" x="822.2258" y="-15.4" font-family="sans-serif" font-size="14.00" fill="#000000"> &#160;Exports</text>
<g id="clust1" class="cluster">
<title>cluster_CoreModule</title>
<polygon fill="none" stroke="#000000" stroke-dasharray="1,5" points="8,-70 8,-195 1273,-195 1273,-70 8,-70"/>
</g>
<g id="clust2" class="cluster">
<title>cluster_CoreModule_declarations</title>
<polygon fill="none" stroke="#000000" points="575,-78 575,-130 1265,-130 1265,-78 575,-78"/>
</g>
<g id="clust8" class="cluster">
<title>cluster_CoreModule_imports</title>
<polygon fill="none" stroke="#000000" points="419,-78 419,-130 567,-130 567,-78 419,-78"/>
</g>
<g id="clust11" class="cluster">
<title>cluster_CoreModule_providers</title>
<polygon fill="none" stroke="#000000" points="16,-78 16,-130 411,-130 411,-78 16,-78"/>
</g>
<!-- FooterComponent -->
<g id="node1" class="node">
<title>FooterComponent</title>
<polygon fill="#ffffb3" stroke="#000000" points="1256.8809,-122 1139.1191,-122 1139.1191,-86 1256.8809,-86 1256.8809,-122"/>
<text text-anchor="middle" x="1198" y="-99.8" font-family="Times,serif" font-size="14.00" fill="#000000">FooterComponent</text>
</g>
<!-- CoreModule -->
<g id="node6" class="node">
<title>CoreModule</title>
<polygon fill="#8dd3c7" stroke="#000000" points="823.2619,-187 820.2619,-191 799.2619,-191 796.2619,-187 736.7381,-187 736.7381,-151 823.2619,-151 823.2619,-187"/>
<text text-anchor="middle" x="780" y="-164.8" font-family="Times,serif" font-size="14.00" fill="#000000">CoreModule</text>
</g>
<!-- FooterComponent&#45;&gt;CoreModule -->
<g id="edge1" class="edge">
<title>FooterComponent&#45;&gt;CoreModule</title>
<path fill="none" stroke="#000000" d="M1198,-122.2921C1198,-144.2057 1198,-178 1198,-178 1198,-178 833.5504,-178 833.5504,-178"/>
<polygon fill="#000000" stroke="#000000" points="833.5504,-174.5001 823.5504,-178 833.5504,-181.5001 833.5504,-174.5001"/>
</g>
<!-- HeaderComponent -->
<g id="node2" class="node">
<title>HeaderComponent</title>
<polygon fill="#ffffb3" stroke="#000000" points="1120.7437,-122 999.2563,-122 999.2563,-86 1120.7437,-86 1120.7437,-122"/>
<text text-anchor="middle" x="1060" y="-99.8" font-family="Times,serif" font-size="14.00" fill="#000000">HeaderComponent</text>
</g>
<!-- HeaderComponent&#45;&gt;CoreModule -->
<g id="edge2" class="edge">
<title>HeaderComponent&#45;&gt;CoreModule</title>
<path fill="none" stroke="#000000" d="M1060,-122.1061C1060,-141.3391 1060,-169 1060,-169 1060,-169 833.4428,-169 833.4428,-169"/>
<polygon fill="#000000" stroke="#000000" points="833.4428,-165.5001 823.4428,-169 833.4427,-172.5001 833.4428,-165.5001"/>
</g>
<!-- LoginComponent -->
<g id="node3" class="node">
<title>LoginComponent</title>
<polygon fill="#ffffb3" stroke="#000000" points="981.2758,-122 866.7242,-122 866.7242,-86 981.2758,-86 981.2758,-122"/>
<text text-anchor="middle" x="924" y="-99.8" font-family="Times,serif" font-size="14.00" fill="#000000">LoginComponent</text>
</g>
<!-- LoginComponent&#45;&gt;CoreModule -->
<g id="edge3" class="edge">
<title>LoginComponent&#45;&gt;CoreModule</title>
<path fill="none" stroke="#000000" d="M924,-122.027C924,-138.3976 924,-160 924,-160 924,-160 833.5955,-160 833.5955,-160"/>
<polygon fill="#000000" stroke="#000000" points="833.5956,-156.5001 823.5955,-160 833.5955,-163.5001 833.5956,-156.5001"/>
</g>
<!-- NotFoundComponent -->
<g id="node4" class="node">
<title>NotFoundComponent</title>
<polygon fill="#ffffb3" stroke="#000000" points="849.1122,-122 710.8878,-122 710.8878,-86 849.1122,-86 849.1122,-122"/>
<text text-anchor="middle" x="780" y="-99.8" font-family="Times,serif" font-size="14.00" fill="#000000">NotFoundComponent</text>
</g>
<!-- NotFoundComponent&#45;&gt;CoreModule -->
<g id="edge4" class="edge">
<title>NotFoundComponent&#45;&gt;CoreModule</title>
<path fill="none" stroke="#000000" d="M765.5397,-122.1061C765.5397,-122.1061 765.5397,-140.991 765.5397,-140.991"/>
<polygon fill="#000000" stroke="#000000" points="762.0398,-140.9909 765.5397,-150.991 769.0398,-140.991 762.0398,-140.9909"/>
</g>
<!-- NotFoundComponent&#45;&gt;CoreModule -->
<g id="edge5" class="edge">
<title>NotFoundComponent&#45;&gt;CoreModule</title>
<path fill="none" stroke="#000000" d="M794.4603,-122.1061C794.4603,-122.1061 794.4603,-140.991 794.4603,-140.991"/>
<polygon fill="#000000" stroke="#000000" points="790.9604,-140.9909 794.4603,-150.991 797.9604,-140.991 790.9604,-140.9909"/>
</g>
<!-- ShellComponent -->
<g id="node5" class="node">
<title>ShellComponent</title>
<polygon fill="#ffffb3" stroke="#000000" points="693.1109,-122 582.8891,-122 582.8891,-86 693.1109,-86 693.1109,-122"/>
<text text-anchor="middle" x="638" y="-99.8" font-family="Times,serif" font-size="14.00" fill="#000000">ShellComponent</text>
</g>
<!-- ShellComponent&#45;&gt;CoreModule -->
<g id="edge6" class="edge">
<title>ShellComponent&#45;&gt;CoreModule</title>
<path fill="none" stroke="#000000" d="M638,-122.0091C638,-138.0494 638,-159 638,-159 638,-159 726.6237,-159 726.6237,-159"/>
<polygon fill="#000000" stroke="#000000" points="726.6238,-162.5001 736.6237,-159 726.6237,-155.5001 726.6238,-162.5001"/>
</g>
<!-- CoreRoutingModule -->
<g id="node7" class="node">
<title>CoreRoutingModule</title>
<polygon fill="#8dd3c7" stroke="#000000" points="558.8795,-122 555.8795,-126 534.8795,-126 531.8795,-122 427.1205,-122 427.1205,-86 558.8795,-86 558.8795,-122"/>
<text text-anchor="middle" x="493" y="-99.8" font-family="Times,serif" font-size="14.00" fill="#000000">CoreRoutingModule</text>
</g>
<!-- CoreRoutingModule&#45;&gt;CoreModule -->
<g id="edge7" class="edge">
<title>CoreRoutingModule&#45;&gt;CoreModule</title>
<path fill="none" stroke="#000000" d="M493,-122.2667C493,-140.5552 493,-166 493,-166 493,-166 726.7225,-166 726.7225,-166"/>
<polygon fill="#000000" stroke="#000000" points="726.7225,-169.5001 736.7225,-166 726.7224,-162.5001 726.7225,-169.5001"/>
</g>
<!-- AuthGuardService -->
<g id="node8" class="node">
<title>AuthGuardService</title>
<ellipse fill="#fdb462" stroke="#000000" cx="320" cy="-104" rx="83.3674" ry="18"/>
<text text-anchor="middle" x="320" y="-99.8" font-family="Times,serif" font-size="14.00" fill="#000000">AuthGuardService</text>
</g>
<!-- AuthGuardService&#45;&gt;CoreModule -->
<g id="edge8" class="edge">
<title>AuthGuardService&#45;&gt;CoreModule</title>
<path fill="none" stroke="#000000" d="M320,-122.1289C320,-142.5724 320,-173 320,-173 320,-173 726.7243,-173 726.7243,-173"/>
<polygon fill="#000000" stroke="#000000" points="726.7244,-176.5001 736.7243,-173 726.7243,-169.5001 726.7244,-176.5001"/>
</g>
<!-- AuthenticationService -->
<g id="node9" class="node">
<title>AuthenticationService</title>
<ellipse fill="#fdb462" stroke="#000000" cx="121" cy="-104" rx="97.2683" ry="18"/>
<text text-anchor="middle" x="121" y="-99.8" font-family="Times,serif" font-size="14.00" fill="#000000">AuthenticationService</text>
</g>
<!-- AuthenticationService&#45;&gt;CoreModule -->
<g id="edge9" class="edge">
<title>AuthenticationService&#45;&gt;CoreModule</title>
<path fill="none" stroke="#000000" d="M121,-122.0109C121,-144.4852 121,-180 121,-180 121,-180 726.5063,-180 726.5063,-180"/>
<polygon fill="#000000" stroke="#000000" points="726.5063,-183.5001 736.5063,-180 726.5063,-176.5001 726.5063,-183.5001"/>
</g>
</g>
</svg>
