<?xml version="1.0" encoding="UTF-8" standalone="no"?>
<!DOCTYPE svg PUBLIC "-//W3C//DTD SVG 1.1//EN"
 "http://www.w3.org/Graphics/SVG/1.1/DTD/svg11.dtd">
<!-- Generated by graphviz version 2.40.1 (20161225.0304)
 -->
<!-- Title: dependencies Pages: 1 -->
<svg width="1104pt" height="211pt"
 viewBox="0.00 0.00 1104.00 211.00" xmlns="http://www.w3.org/2000/svg" xmlns:xlink="http://www.w3.org/1999/xlink">
<g id="graph0" class="graph" transform="scale(1 1) rotate(0) translate(4 207)">
<title>dependencies</title>
<polygon fill="#ffffff" stroke="transparent" points="-4,4 -4,-207 1100,-207 1100,4 -4,4"/>
<text text-anchor="start" x="527.0091" y="-42.4" font-family="sans-serif" font-weight="bold" font-size="14.00" fill="#000000">Legend</text>
<polygon fill="#ffffb3" stroke="transparent" points="314,-10 314,-30 334,-30 334,-10 314,-10"/>
<text text-anchor="start" x="337.629" y="-15.4" font-family="sans-serif" font-size="14.00" fill="#000000"> &#160;Declarations</text>
<polygon fill="#8dd3c7" stroke="transparent" points="427,-10 427,-30 447,-30 447,-10 427,-10"/>
<text text-anchor="start" x="450.7251" y="-15.4" font-family="sans-serif" font-size="14.00" fill="#000000"> &#160;Module</text>
<polygon fill="#80b1d3" stroke="transparent" points="513,-10 513,-30 533,-30 533,-10 513,-10"/>
<text text-anchor="start" x="536.7812" y="-15.4" font-family="sans-serif" font-size="14.00" fill="#000000"> &#160;Bootstrap</text>
<polygon fill="#fdb462" stroke="transparent" points="610,-10 610,-30 630,-30 630,-10 610,-10"/>
<text text-anchor="start" x="633.6732" y="-15.4" font-family="sans-serif" font-size="14.00" fill="#000000"> &#160;Providers</text>
<polygon fill="#fb8072" stroke="transparent" points="706,-10 706,-30 726,-30 726,-10 706,-10"/>
<text text-anchor="start" x="729.7258" y="-15.4" font-family="sans-serif" font-size="14.00" fill="#000000"> &#160;Exports</text>
<g id="clust1" class="cluster">
<title>cluster_CoreModule</title>
<polygon fill="none" stroke="#000000" stroke-dasharray="1,5" points="8,-70 8,-195 1088,-195 1088,-70 8,-70"/>
</g>
<g id="clust2" class="cluster">
<title>cluster_CoreModule_declarations</title>
<polygon fill="none" stroke="#000000" points="390,-78 390,-130 1080,-130 1080,-78 390,-78"/>
</g>
<g id="clust8" class="cluster">
<title>cluster_CoreModule_imports</title>
<polygon fill="none" stroke="#000000" points="234,-78 234,-130 382,-130 382,-78 234,-78"/>
</g>
<g id="clust11" class="cluster">
<title>cluster_CoreModule_providers</title>
<polygon fill="none" stroke="#000000" points="16,-78 16,-130 226,-130 226,-78 16,-78"/>
</g>
<!-- FooterComponent -->
<g id="node1" class="node">
<title>FooterComponent</title>
<polygon fill="#ffffb3" stroke="#000000" points="1071.8809,-122 954.1191,-122 954.1191,-86 1071.8809,-86 1071.8809,-122"/>
<text text-anchor="middle" x="1013" y="-99.8" font-family="Times,serif" font-size="14.00" fill="#000000">FooterComponent</text>
</g>
<!-- CoreModule -->
<g id="node6" class="node">
<title>CoreModule</title>
<polygon fill="#8dd3c7" stroke="#000000" points="638.2619,-187 635.2619,-191 614.2619,-191 611.2619,-187 551.7381,-187 551.7381,-151 638.2619,-151 638.2619,-187"/>
<text text-anchor="middle" x="595" y="-164.8" font-family="Times,serif" font-size="14.00" fill="#000000">CoreModule</text>
</g>
<!-- FooterComponent&#45;&gt;CoreModule -->
<g id="edge1" class="edge">
<title>FooterComponent&#45;&gt;CoreModule</title>
<path fill="none" stroke="#000000" d="M1013,-122.2921C1013,-144.2057 1013,-178 1013,-178 1013,-178 648.5504,-178 648.5504,-178"/>
<polygon fill="#000000" stroke="#000000" points="648.5504,-174.5001 638.5504,-178 648.5504,-181.5001 648.5504,-174.5001"/>
</g>
<!-- HeaderComponent -->
<g id="node2" class="node">
<title>HeaderComponent</title>
<polygon fill="#ffffb3" stroke="#000000" points="935.7437,-122 814.2563,-122 814.2563,-86 935.7437,-86 935.7437,-122"/>
<text text-anchor="middle" x="875" y="-99.8" font-family="Times,serif" font-size="14.00" fill="#000000">HeaderComponent</text>
</g>
<!-- HeaderComponent&#45;&gt;CoreModule -->
<g id="edge2" class="edge">
<title>HeaderComponent&#45;&gt;CoreModule</title>
<path fill="none" stroke="#000000" d="M875,-122.1061C875,-141.3391 875,-169 875,-169 875,-169 648.4428,-169 648.4428,-169"/>
<polygon fill="#000000" stroke="#000000" points="648.4428,-165.5001 638.4428,-169 648.4427,-172.5001 648.4428,-165.5001"/>
</g>
<!-- LoginComponent -->
<g id="node3" class="node">
<title>LoginComponent</title>
<polygon fill="#ffffb3" stroke="#000000" points="796.2758,-122 681.7242,-122 681.7242,-86 796.2758,-86 796.2758,-122"/>
<text text-anchor="middle" x="739" y="-99.8" font-family="Times,serif" font-size="14.00" fill="#000000">LoginComponent</text>
</g>
<!-- LoginComponent&#45;&gt;CoreModule -->
<g id="edge3" class="edge">
<title>LoginComponent&#45;&gt;CoreModule</title>
<path fill="none" stroke="#000000" d="M739,-122.027C739,-138.3976 739,-160 739,-160 739,-160 648.5955,-160 648.5955,-160"/>
<polygon fill="#000000" stroke="#000000" points="648.5956,-156.5001 638.5955,-160 648.5955,-163.5001 648.5956,-156.5001"/>
</g>
<!-- NotFoundComponent -->
<g id="node4" class="node">
<title>NotFoundComponent</title>
<polygon fill="#ffffb3" stroke="#000000" points="664.1122,-122 525.8878,-122 525.8878,-86 664.1122,-86 664.1122,-122"/>
<text text-anchor="middle" x="595" y="-99.8" font-family="Times,serif" font-size="14.00" fill="#000000">NotFoundComponent</text>
</g>
<!-- NotFoundComponent&#45;&gt;CoreModule -->
<g id="edge4" class="edge">
<title>NotFoundComponent&#45;&gt;CoreModule</title>
<path fill="none" stroke="#000000" d="M595,-122.1061C595,-122.1061 595,-140.991 595,-140.991"/>
<polygon fill="#000000" stroke="#000000" points="591.5001,-140.9909 595,-150.991 598.5001,-140.991 591.5001,-140.9909"/>
</g>
<!-- ShellComponent -->
<g id="node5" class="node">
<title>ShellComponent</title>
<polygon fill="#ffffb3" stroke="#000000" points="508.1109,-122 397.8891,-122 397.8891,-86 508.1109,-86 508.1109,-122"/>
<text text-anchor="middle" x="453" y="-99.8" font-family="Times,serif" font-size="14.00" fill="#000000">ShellComponent</text>
</g>
<!-- ShellComponent&#45;&gt;CoreModule -->
<g id="edge5" class="edge">
<title>ShellComponent&#45;&gt;CoreModule</title>
<path fill="none" stroke="#000000" d="M453,-122.027C453,-138.3976 453,-160 453,-160 453,-160 541.6237,-160 541.6237,-160"/>
<polygon fill="#000000" stroke="#000000" points="541.6238,-163.5001 551.6237,-160 541.6237,-156.5001 541.6238,-163.5001"/>
</g>
<!-- CoreRoutingModule -->
<g id="node7" class="node">
<title>CoreRoutingModule</title>
<polygon fill="#8dd3c7" stroke="#000000" points="373.8795,-122 370.8795,-126 349.8795,-126 346.8795,-122 242.1205,-122 242.1205,-86 373.8795,-86 373.8795,-122"/>
<text text-anchor="middle" x="308" y="-99.8" font-family="Times,serif" font-size="14.00" fill="#000000">CoreRoutingModule</text>
</g>
<!-- CoreRoutingModule&#45;&gt;CoreModule -->
<g id="edge6" class="edge">
<title>CoreRoutingModule&#45;&gt;CoreModule</title>
<path fill="none" stroke="#000000" d="M308,-122.1061C308,-141.3391 308,-169 308,-169 308,-169 541.7225,-169 541.7225,-169"/>
<polygon fill="#000000" stroke="#000000" points="541.7225,-172.5001 551.7225,-169 541.7224,-165.5001 541.7225,-172.5001"/>
</g>
<!-- AuthenticationService -->
<g id="node8" class="node">
<title>AuthenticationService</title>
<ellipse fill="#fdb462" stroke="#000000" cx="121" cy="-104" rx="97.2683" ry="18"/>
<text text-anchor="middle" x="121" y="-99.8" font-family="Times,serif" font-size="14.00" fill="#000000">AuthenticationService</text>
</g>
<!-- AuthenticationService&#45;&gt;CoreModule -->
<g id="edge7" class="edge">
<title>AuthenticationService&#45;&gt;CoreModule</title>
<path fill="none" stroke="#000000" d="M121,-122.2921C121,-144.2057 121,-178 121,-178 121,-178 541.6791,-178 541.6791,-178"/>
<polygon fill="#000000" stroke="#000000" points="541.6791,-181.5001 551.6791,-178 541.6791,-174.5001 541.6791,-181.5001"/>
</g>
</g>
</svg>
