<?xml version="1.0" encoding="UTF-8" standalone="no"?>
<!DOCTYPE svg PUBLIC "-//W3C//DTD SVG 1.1//EN"
 "http://www.w3.org/Graphics/SVG/1.1/DTD/svg11.dtd">
<!-- Generated by graphviz version 2.40.1 (20161225.0304)
 -->
<!-- Title: dependencies Pages: 1 -->
<svg width="747pt" height="284pt"
 viewBox="0.00 0.00 747.00 284.00" xmlns="http://www.w3.org/2000/svg" xmlns:xlink="http://www.w3.org/1999/xlink">
<g id="graph0" class="graph" transform="scale(1 1) rotate(0) translate(4 280)">
<title>dependencies</title>
<polygon fill="#ffffff" stroke="transparent" points="-4,4 -4,-280 743,-280 743,4 -4,4"/>
<text text-anchor="start" x="348.5091" y="-42.4" font-family="sans-serif" font-weight="bold" font-size="14.00" fill="#000000">Legend</text>
<polygon fill="#ffffb3" stroke="transparent" points="135.5,-10 135.5,-30 155.5,-30 155.5,-10 135.5,-10"/>
<text text-anchor="start" x="159.129" y="-15.4" font-family="sans-serif" font-size="14.00" fill="#000000"> &#160;Declarations</text>
<polygon fill="#8dd3c7" stroke="transparent" points="248.5,-10 248.5,-30 268.5,-30 268.5,-10 248.5,-10"/>
<text text-anchor="start" x="272.2251" y="-15.4" font-family="sans-serif" font-size="14.00" fill="#000000"> &#160;Module</text>
<polygon fill="#80b1d3" stroke="transparent" points="334.5,-10 334.5,-30 354.5,-30 354.5,-10 334.5,-10"/>
<text text-anchor="start" x="358.2812" y="-15.4" font-family="sans-serif" font-size="14.00" fill="#000000"> &#160;Bootstrap</text>
<polygon fill="#fdb462" stroke="transparent" points="431.5,-10 431.5,-30 451.5,-30 451.5,-10 431.5,-10"/>
<text text-anchor="start" x="455.1732" y="-15.4" font-family="sans-serif" font-size="14.00" fill="#000000"> &#160;Providers</text>
<polygon fill="#fb8072" stroke="transparent" points="527.5,-10 527.5,-30 547.5,-30 547.5,-10 527.5,-10"/>
<text text-anchor="start" x="551.2258" y="-15.4" font-family="sans-serif" font-size="14.00" fill="#000000"> &#160;Exports</text>
<g id="clust1" class="cluster">
<title>cluster_SharedModule</title>
<polygon fill="none" stroke="#000000" stroke-dasharray="1,5" points="8,-70 8,-268 731,-268 731,-70 8,-70"/>
</g>
<g id="clust2" class="cluster">
<title>cluster_SharedModule_declarations</title>
<polygon fill="none" stroke="#000000" points="206,-78 206,-130 723,-130 723,-78 206,-78"/>
</g>
<g id="clust9" class="cluster">
<title>cluster_SharedModule_exports</title>
<polygon fill="none" stroke="#000000" points="142,-208 142,-260 676,-260 676,-208 142,-208"/>
</g>
<g id="clust11" class="cluster">
<title>cluster_SharedModule_providers</title>
<polygon fill="none" stroke="#000000" points="16,-78 16,-130 198,-130 198,-78 16,-78"/>
</g>
<!-- ArrayFilterPipe -->
<g id="node1" class="node">
<title>ArrayFilterPipe</title>
<polygon fill="#ffffb3" stroke="#000000" points="714.8599,-122 611.1401,-122 611.1401,-86 714.8599,-86 714.8599,-122"/>
<text text-anchor="middle" x="663" y="-99.8" font-family="Times,serif" font-size="14.00" fill="#000000">ArrayFilterPipe</text>
</g>
<!-- SharedModule -->
<g id="node6" class="node">
<title>SharedModule</title>
<polygon fill="#8dd3c7" stroke="#000000" points="450.4231,-187 447.4231,-191 426.4231,-191 423.4231,-187 351.5769,-187 351.5769,-151 450.4231,-151 450.4231,-187"/>
<text text-anchor="middle" x="401" y="-164.8" font-family="Times,serif" font-size="14.00" fill="#000000">SharedModule</text>
</g>
<!-- ArrayFilterPipe&#45;&gt;SharedModule -->
<g id="edge1" class="edge">
<title>ArrayFilterPipe&#45;&gt;SharedModule</title>
<path fill="none" stroke="#000000" d="M639.375,-122.2667C639.375,-140.5552 639.375,-166 639.375,-166 639.375,-166 460.3915,-166 460.3915,-166"/>
<polygon fill="#000000" stroke="#000000" points="460.3915,-162.5001 450.3915,-166 460.3914,-169.5001 460.3915,-162.5001"/>
</g>
<!-- BytesPipe -->
<g id="node2" class="node">
<title>BytesPipe</title>
<polygon fill="#ffffb3" stroke="#000000" points="593.2745,-122 520.7255,-122 520.7255,-86 593.2745,-86 593.2745,-122"/>
<text text-anchor="middle" x="557" y="-99.8" font-family="Times,serif" font-size="14.00" fill="#000000">BytesPipe</text>
</g>
<!-- BytesPipe&#45;&gt;SharedModule -->
<g id="edge2" class="edge">
<title>BytesPipe&#45;&gt;SharedModule</title>
<path fill="none" stroke="#000000" d="M531.375,-122.0091C531.375,-138.0494 531.375,-159 531.375,-159 531.375,-159 460.2892,-159 460.2892,-159"/>
<polygon fill="#000000" stroke="#000000" points="460.2892,-155.5001 450.2892,-159 460.2892,-162.5001 460.2892,-155.5001"/>
</g>
<!-- DurationPipe -->
<g id="node3" class="node">
<title>DurationPipe</title>
<polygon fill="#ffffb3" stroke="#000000" points="502.1515,-122 411.8485,-122 411.8485,-86 502.1515,-86 502.1515,-122"/>
<text text-anchor="middle" x="457" y="-99.8" font-family="Times,serif" font-size="14.00" fill="#000000">DurationPipe</text>
</g>
<!-- DurationPipe&#45;&gt;SharedModule -->
<g id="edge3" class="edge">
<title>DurationPipe&#45;&gt;SharedModule</title>
<path fill="none" stroke="#000000" d="M430.9429,-122.1061C430.9429,-122.1061 430.9429,-140.991 430.9429,-140.991"/>
<polygon fill="#000000" stroke="#000000" points="427.4429,-140.9909 430.9429,-150.991 434.4429,-140.991 427.4429,-140.9909"/>
</g>
<!-- SearchPipe -->
<g id="node4" class="node">
<title>SearchPipe</title>
<polygon fill="#ffffb3" stroke="#000000" points="393.4748,-122 314.5252,-122 314.5252,-86 393.4748,-86 393.4748,-122"/>
<text text-anchor="middle" x="354" y="-99.8" font-family="Times,serif" font-size="14.00" fill="#000000">SearchPipe</text>
</g>
<!-- SearchPipe&#45;&gt;SharedModule -->
<g id="edge4" class="edge">
<title>SearchPipe&#45;&gt;SharedModule</title>
<path fill="none" stroke="#000000" d="M372.6382,-122.1061C372.6382,-122.1061 372.6382,-140.991 372.6382,-140.991"/>
<polygon fill="#000000" stroke="#000000" points="369.1382,-140.9909 372.6382,-150.991 376.1382,-140.991 369.1382,-140.9909"/>
</g>
<!-- SlugifyPipe -->
<g id="node5" class="node">
<title>SlugifyPipe</title>
<polygon fill="#ffffb3" stroke="#000000" points="296.1123,-122 213.8877,-122 213.8877,-86 296.1123,-86 296.1123,-122"/>
<text text-anchor="middle" x="255" y="-99.8" font-family="Times,serif" font-size="14.00" fill="#000000">SlugifyPipe</text>
</g>
<!-- SlugifyPipe&#45;&gt;SharedModule -->
<g id="edge5" class="edge">
<title>SlugifyPipe&#45;&gt;SharedModule</title>
<path fill="none" stroke="#000000" d="M274.9094,-122.0091C274.9094,-138.0494 274.9094,-159 274.9094,-159 274.9094,-159 341.5275,-159 341.5275,-159"/>
<polygon fill="#000000" stroke="#000000" points="341.5276,-162.5001 351.5275,-159 341.5275,-155.5001 341.5276,-162.5001"/>
</g>
<!-- ArrayFilterPipe  -->
<g id="node7" class="node">
<title>ArrayFilterPipe </title>
<polygon fill="#fb8072" stroke="#000000" points="667.8604,-252 560.1396,-252 560.1396,-216 667.8604,-216 667.8604,-252"/>
<text text-anchor="middle" x="614" y="-229.8" font-family="Times,serif" font-size="14.00" fill="#000000">ArrayFilterPipe </text>
</g>
<!-- SharedModule&#45;&gt;ArrayFilterPipe  -->
<g id="edge6" class="edge">
<title>SharedModule&#45;&gt;ArrayFilterPipe </title>
<path fill="none" stroke="#000000" stroke-dasharray="5,2" d="M450.453,-173C502.4661,-173 576.8536,-173 576.8536,-173 576.8536,-173 576.8536,-205.698 576.8536,-205.698"/>
<polygon fill="#000000" stroke="#000000" points="573.3537,-205.698 576.8536,-215.698 580.3537,-205.698 573.3537,-205.698"/>
</g>
<!-- BytesPipe  -->
<g id="node8" class="node">
<title>BytesPipe </title>
<polygon fill="#fb8072" stroke="#000000" points="542.2747,-252 465.7253,-252 465.7253,-216 542.2747,-216 542.2747,-252"/>
<text text-anchor="middle" x="504" y="-229.8" font-family="Times,serif" font-size="14.00" fill="#000000">BytesPipe </text>
</g>
<!-- SharedModule&#45;&gt;BytesPipe  -->
<g id="edge7" class="edge">
<title>SharedModule&#45;&gt;BytesPipe </title>
<path fill="none" stroke="#000000" stroke-dasharray="5,2" d="M450.2966,-180C468.1894,-180 484.0942,-180 484.0942,-180 484.0942,-180 484.0942,-205.7181 484.0942,-205.7181"/>
<polygon fill="#000000" stroke="#000000" points="480.5942,-205.718 484.0942,-215.7181 487.5942,-205.7181 480.5942,-205.718"/>
</g>
<!-- DurationPipe  -->
<g id="node9" class="node">
<title>DurationPipe </title>
<polygon fill="#fb8072" stroke="#000000" points="448.1509,-252 353.8491,-252 353.8491,-216 448.1509,-216 448.1509,-252"/>
<text text-anchor="middle" x="401" y="-229.8" font-family="Times,serif" font-size="14.00" fill="#000000">DurationPipe </text>
</g>
<!-- SharedModule&#45;&gt;DurationPipe  -->
<g id="edge8" class="edge">
<title>SharedModule&#45;&gt;DurationPipe </title>
<path fill="none" stroke="#000000" stroke-dasharray="5,2" d="M401,-187.1061C401,-187.1061 401,-205.991 401,-205.991"/>
<polygon fill="#000000" stroke="#000000" points="397.5001,-205.9909 401,-215.991 404.5001,-205.991 397.5001,-205.9909"/>
</g>
<!-- SearchPipe  -->
<g id="node10" class="node">
<title>SearchPipe </title>
<polygon fill="#fb8072" stroke="#000000" points="336.4762,-252 253.5238,-252 253.5238,-216 336.4762,-216 336.4762,-252"/>
<text text-anchor="middle" x="295" y="-229.8" font-family="Times,serif" font-size="14.00" fill="#000000">SearchPipe </text>
</g>
<!-- SharedModule&#45;&gt;SearchPipe  -->
<g id="edge9" class="edge">
<title>SharedModule&#45;&gt;SearchPipe </title>
<path fill="none" stroke="#000000" stroke-dasharray="5,2" d="M351.4008,-180C337.1464,-180 325.375,-180 325.375,-180 325.375,-180 325.375,-205.7181 325.375,-205.7181"/>
<polygon fill="#000000" stroke="#000000" points="321.8751,-205.718 325.375,-215.7181 328.8751,-205.7181 321.8751,-205.718"/>
</g>
<!-- SlugifyPipe  -->
<g id="node11" class="node">
<title>SlugifyPipe </title>
<polygon fill="#fb8072" stroke="#000000" points="235.6131,-252 150.3869,-252 150.3869,-216 235.6131,-216 235.6131,-252"/>
<text text-anchor="middle" x="193" y="-229.8" font-family="Times,serif" font-size="14.00" fill="#000000">SlugifyPipe </text>
</g>
<!-- SharedModule&#45;&gt;SlugifyPipe  -->
<g id="edge10" class="edge">
<title>SharedModule&#45;&gt;SlugifyPipe </title>
<path fill="none" stroke="#000000" stroke-dasharray="5,2" d="M351.4707,-173C299.3773,-173 224.875,-173 224.875,-173 224.875,-173 224.875,-205.698 224.875,-205.698"/>
<polygon fill="#000000" stroke="#000000" points="221.3751,-205.698 224.875,-215.698 228.3751,-205.698 221.3751,-205.698"/>
</g>
<!-- WebsocketService -->
<g id="node12" class="node">
<title>WebsocketService</title>
<ellipse fill="#fdb462" stroke="#000000" cx="107" cy="-104" rx="82.7839" ry="18"/>
<text text-anchor="middle" x="107" y="-99.8" font-family="Times,serif" font-size="14.00" fill="#000000">WebsocketService</text>
</g>
<!-- WebsocketService&#45;&gt;SharedModule -->
<g id="edge11" class="edge">
<title>WebsocketService&#45;&gt;SharedModule</title>
<path fill="none" stroke="#000000" d="M170.0429,-115.9542C170.0429,-133.9707 170.0429,-166 170.0429,-166 170.0429,-166 341.7372,-166 341.7372,-166"/>
<polygon fill="#000000" stroke="#000000" points="341.7372,-169.5001 351.7372,-166 341.7372,-162.5001 341.7372,-169.5001"/>
</g>
</g>
</svg>
