<?xml version="1.0" encoding="UTF-8" standalone="no"?>
<!DOCTYPE svg PUBLIC "-//W3C//DTD SVG 1.1//EN"
 "http://www.w3.org/Graphics/SVG/1.1/DTD/svg11.dtd">
<!-- Generated by graphviz version 2.40.1 (20161225.0304)
 -->
<!-- Title: dependencies Pages: 1 -->
<svg width="1092pt" height="211pt"
 viewBox="0.00 0.00 1092.00 211.00" xmlns="http://www.w3.org/2000/svg" xmlns:xlink="http://www.w3.org/1999/xlink">
<g id="graph0" class="graph" transform="scale(1 1) rotate(0) translate(4 207)">
<title>dependencies</title>
<polygon fill="#ffffff" stroke="transparent" points="-4,4 -4,-207 1088,-207 1088,4 -4,4"/>
<text text-anchor="start" x="521.0091" y="-42.4" font-family="sans-serif" font-weight="bold" font-size="14.00" fill="#000000">Legend</text>
<polygon fill="#ffffb3" stroke="transparent" points="308,-10 308,-30 328,-30 328,-10 308,-10"/>
<text text-anchor="start" x="331.629" y="-15.4" font-family="sans-serif" font-size="14.00" fill="#000000"> &#160;Declarations</text>
<polygon fill="#8dd3c7" stroke="transparent" points="421,-10 421,-30 441,-30 441,-10 421,-10"/>
<text text-anchor="start" x="444.7251" y="-15.4" font-family="sans-serif" font-size="14.00" fill="#000000"> &#160;Module</text>
<polygon fill="#80b1d3" stroke="transparent" points="507,-10 507,-30 527,-30 527,-10 507,-10"/>
<text text-anchor="start" x="530.7812" y="-15.4" font-family="sans-serif" font-size="14.00" fill="#000000"> &#160;Bootstrap</text>
<polygon fill="#fdb462" stroke="transparent" points="604,-10 604,-30 624,-30 624,-10 604,-10"/>
<text text-anchor="start" x="627.6732" y="-15.4" font-family="sans-serif" font-size="14.00" fill="#000000"> &#160;Providers</text>
<polygon fill="#fb8072" stroke="transparent" points="700,-10 700,-30 720,-30 720,-10 700,-10"/>
<text text-anchor="start" x="723.7258" y="-15.4" font-family="sans-serif" font-size="14.00" fill="#000000"> &#160;Exports</text>
<g id="clust1" class="cluster">
<title>cluster_RemoteCenterModule</title>
<polygon fill="none" stroke="#000000" stroke-dasharray="1,5" points="8,-70 8,-195 1076,-195 1076,-70 8,-70"/>
</g>
<g id="clust2" class="cluster">
<title>cluster_RemoteCenterModule_declarations</title>
<polygon fill="none" stroke="#000000" points="746,-78 746,-130 1068,-130 1068,-78 746,-78"/>
</g>
<g id="clust5" class="cluster">
<title>cluster_RemoteCenterModule_imports</title>
<polygon fill="none" stroke="#000000" points="420,-78 420,-130 738,-130 738,-78 420,-78"/>
</g>
<g id="clust8" class="cluster">
<title>cluster_RemoteCenterModule_providers</title>
<polygon fill="none" stroke="#000000" points="16,-78 16,-130 412,-130 412,-78 16,-78"/>
</g>
<!-- CockpitComponent -->
<g id="node1" class="node">
<title>CockpitComponent</title>
<polygon fill="#ffffb3" stroke="#000000" points="1059.6652,-122 934.3348,-122 934.3348,-86 1059.6652,-86 1059.6652,-122"/>
<text text-anchor="middle" x="997" y="-99.8" font-family="Times,serif" font-size="14.00" fill="#000000">CockpitComponent</text>
</g>
<!-- RemoteCenterModule -->
<g id="node3" class="node">
<title>RemoteCenterModule</title>
<polygon fill="#8dd3c7" stroke="#000000" points="627.4144,-187 624.4144,-191 603.4144,-191 600.4144,-187 486.5856,-187 486.5856,-151 627.4144,-151 627.4144,-187"/>
<text text-anchor="middle" x="557" y="-164.8" font-family="Times,serif" font-size="14.00" fill="#000000">RemoteCenterModule</text>
</g>
<!-- CockpitComponent&#45;&gt;RemoteCenterModule -->
<g id="edge1" class="edge">
<title>CockpitComponent&#45;&gt;RemoteCenterModule</title>
<path fill="none" stroke="#000000" d="M997,-122.2843C997,-143.3211 997,-175 997,-175 997,-175 637.6936,-175 637.6936,-175"/>
<polygon fill="#000000" stroke="#000000" points="637.6936,-171.5001 627.6936,-175 637.6936,-178.5001 637.6936,-171.5001"/>
</g>
<!-- RemoteCenterComponent -->
<g id="node2" class="node">
<title>RemoteCenterComponent</title>
<polygon fill="#ffffb3" stroke="#000000" points="916.1965,-122 753.8035,-122 753.8035,-86 916.1965,-86 916.1965,-122"/>
<text text-anchor="middle" x="835" y="-99.8" font-family="Times,serif" font-size="14.00" fill="#000000">RemoteCenterComponent</text>
</g>
<!-- RemoteCenterComponent&#45;&gt;RemoteCenterModule -->
<g id="edge2" class="edge">
<title>RemoteCenterComponent&#45;&gt;RemoteCenterModule</title>
<path fill="none" stroke="#000000" d="M835,-122.0225C835,-139.3734 835,-163 835,-163 835,-163 637.5105,-163 637.5105,-163"/>
<polygon fill="#000000" stroke="#000000" points="637.5106,-159.5001 627.5105,-163 637.5105,-166.5001 637.5106,-159.5001"/>
</g>
<!-- RemoteCenterRoutingModule -->
<g id="node4" class="node">
<title>RemoteCenterRoutingModule</title>
<polygon fill="#8dd3c7" stroke="#000000" points="729.5322,-122 726.5322,-126 705.5322,-126 702.5322,-122 544.4678,-122 544.4678,-86 729.5322,-86 729.5322,-122"/>
<text text-anchor="middle" x="637" y="-99.8" font-family="Times,serif" font-size="14.00" fill="#000000">RemoteCenterRoutingModule</text>
</g>
<!-- RemoteCenterRoutingModule&#45;&gt;RemoteCenterModule -->
<g id="edge3" class="edge">
<title>RemoteCenterRoutingModule&#45;&gt;RemoteCenterModule</title>
<path fill="none" stroke="#000000" d="M585.7206,-122.1061C585.7206,-122.1061 585.7206,-140.991 585.7206,-140.991"/>
<polygon fill="#000000" stroke="#000000" points="582.2206,-140.9909 585.7206,-150.991 589.2206,-140.991 582.2206,-140.9909"/>
</g>
<!-- SharedModule -->
<g id="node5" class="node">
<title>SharedModule</title>
<polygon fill="#8dd3c7" stroke="#000000" points="526.4231,-122 523.4231,-126 502.4231,-126 499.4231,-122 427.5769,-122 427.5769,-86 526.4231,-86 526.4231,-122"/>
<text text-anchor="middle" x="477" y="-99.8" font-family="Times,serif" font-size="14.00" fill="#000000">SharedModule</text>
</g>
<!-- SharedModule&#45;&gt;RemoteCenterModule -->
<g id="edge4" class="edge">
<title>SharedModule&#45;&gt;RemoteCenterModule</title>
<path fill="none" stroke="#000000" d="M506.5021,-122.1061C506.5021,-122.1061 506.5021,-140.991 506.5021,-140.991"/>
<polygon fill="#000000" stroke="#000000" points="503.0022,-140.9909 506.5021,-150.991 510.0022,-140.991 503.0022,-140.9909"/>
</g>
<!-- ObsWebsocketService -->
<g id="node6" class="node">
<title>ObsWebsocketService</title>
<ellipse fill="#fdb462" stroke="#000000" cx="306" cy="-104" rx="98.3946" ry="18"/>
<text text-anchor="middle" x="306" y="-99.8" font-family="Times,serif" font-size="14.00" fill="#000000">ObsWebsocketService</text>
</g>
<!-- ObsWebsocketService&#45;&gt;RemoteCenterModule -->
<g id="edge5" class="edge">
<title>ObsWebsocketService&#45;&gt;RemoteCenterModule</title>
<path fill="none" stroke="#000000" d="M306,-122.0225C306,-139.3734 306,-163 306,-163 306,-163 476.7487,-163 476.7487,-163"/>
<polygon fill="#000000" stroke="#000000" points="476.7488,-166.5001 486.7487,-163 476.7487,-159.5001 476.7488,-166.5001"/>
</g>
<!-- WebsocketService -->
<g id="node7" class="node">
<title>WebsocketService</title>
<ellipse fill="#fdb462" stroke="#000000" cx="107" cy="-104" rx="82.7839" ry="18"/>
<text text-anchor="middle" x="107" y="-99.8" font-family="Times,serif" font-size="14.00" fill="#000000">WebsocketService</text>
</g>
<!-- WebsocketService&#45;&gt;RemoteCenterModule -->
<g id="edge6" class="edge">
<title>WebsocketService&#45;&gt;RemoteCenterModule</title>
<path fill="none" stroke="#000000" d="M107,-122.2843C107,-143.3211 107,-175 107,-175 107,-175 476.6875,-175 476.6875,-175"/>
<polygon fill="#000000" stroke="#000000" points="476.6875,-178.5001 486.6875,-175 476.6875,-171.5001 476.6875,-178.5001"/>
</g>
</g>
</svg>
