<?xml version="1.0" encoding="UTF-8" standalone="no"?>
<!DOCTYPE svg PUBLIC "-//W3C//DTD SVG 1.1//EN"
 "http://www.w3.org/Graphics/SVG/1.1/DTD/svg11.dtd">
<!-- Generated by graphviz version 2.40.1 (20161225.0304)
 -->
<!-- Title: dependencies Pages: 1 -->
<svg width="3074pt" height="287pt"
 viewBox="0.00 0.00 3074.00 287.00" xmlns="http://www.w3.org/2000/svg" xmlns:xlink="http://www.w3.org/1999/xlink">
<g id="graph0" class="graph" transform="scale(1 1) rotate(0) translate(4 283)">
<title>dependencies</title>
<polygon fill="#ffffff" stroke="transparent" points="-4,4 -4,-283 3070,-283 3070,4 -4,4"/>
<text text-anchor="start" x="1512.0091" y="-42.4" font-family="sans-serif" font-weight="bold" font-size="14.00" fill="#000000">Legend</text>
<polygon fill="#ffffb3" stroke="transparent" points="1299,-10 1299,-30 1319,-30 1319,-10 1299,-10"/>
<text text-anchor="start" x="1322.629" y="-15.4" font-family="sans-serif" font-size="14.00" fill="#000000"> &#160;Declarations</text>
<polygon fill="#8dd3c7" stroke="transparent" points="1412,-10 1412,-30 1432,-30 1432,-10 1412,-10"/>
<text text-anchor="start" x="1435.7251" y="-15.4" font-family="sans-serif" font-size="14.00" fill="#000000"> &#160;Module</text>
<polygon fill="#80b1d3" stroke="transparent" points="1498,-10 1498,-30 1518,-30 1518,-10 1498,-10"/>
<text text-anchor="start" x="1521.7812" y="-15.4" font-family="sans-serif" font-size="14.00" fill="#000000"> &#160;Bootstrap</text>
<polygon fill="#fdb462" stroke="transparent" points="1595,-10 1595,-30 1615,-30 1615,-10 1595,-10"/>
<text text-anchor="start" x="1618.6732" y="-15.4" font-family="sans-serif" font-size="14.00" fill="#000000"> &#160;Providers</text>
<polygon fill="#fb8072" stroke="transparent" points="1691,-10 1691,-30 1711,-30 1711,-10 1691,-10"/>
<text text-anchor="start" x="1714.7258" y="-15.4" font-family="sans-serif" font-size="14.00" fill="#000000"> &#160;Exports</text>
<g id="clust7" class="cluster">
<title>cluster_CoreModule</title>
<polygon fill="none" stroke="#000000" stroke-dasharray="1,5" points="8,-70 8,-195 1273,-195 1273,-70 8,-70"/>
</g>
<g id="clust8" class="cluster">
<title>cluster_CoreModule_declarations</title>
<polygon fill="none" stroke="#000000" points="575,-78 575,-130 1265,-130 1265,-78 575,-78"/>
</g>
<g id="clust14" class="cluster">
<title>cluster_CoreModule_imports</title>
<polygon fill="none" stroke="#000000" points="419,-78 419,-130 567,-130 567,-78 419,-78"/>
</g>
<g id="clust17" class="cluster">
<title>cluster_CoreModule_providers</title>
<polygon fill="none" stroke="#000000" points="16,-78 16,-130 411,-130 411,-78 16,-78"/>
</g>
<g id="clust24" class="cluster">
<title>cluster_RemoteCenterModule</title>
<polygon fill="none" stroke="#000000" stroke-dasharray="1,5" points="1281,-70 1281,-263 1977,-263 1977,-70 1281,-70"/>
</g>
<g id="clust25" class="cluster">
<title>cluster_RemoteCenterModule_declarations</title>
<polygon fill="none" stroke="#000000" points="1321,-143 1321,-195 1643,-195 1643,-143 1321,-143"/>
</g>
<g id="clust28" class="cluster">
<title>cluster_RemoteCenterModule_imports</title>
<polygon fill="none" stroke="#000000" points="1651,-143 1651,-195 1969,-195 1969,-143 1651,-143"/>
</g>
<g id="clust31" class="cluster">
<title>cluster_RemoteCenterModule_providers</title>
<polygon fill="none" stroke="#000000" points="1289,-78 1289,-130 1685,-130 1685,-78 1289,-78"/>
</g>
<g id="clust38" class="cluster">
<title>cluster_SharedModule</title>
<polygon fill="none" stroke="#000000" stroke-dasharray="1,5" points="1985,-203 1985,-271 3058,-271 3058,-203 1985,-203"/>
</g>
<g id="clust39" class="cluster">
<title>cluster_SharedModule_declarations</title>
<polygon fill="none" stroke="#000000" points="2534,-211 2534,-263 3050,-263 3050,-211 2534,-211"/>
</g>
<g id="clust46" class="cluster">
<title>cluster_SharedModule_exports</title>
<polygon fill="none" stroke="#000000" points="1993,-211 1993,-263 2526,-263 2526,-211 1993,-211"/>
</g>
<!-- FooterComponent -->
<g id="node1" class="node">
<title>FooterComponent</title>
<polygon fill="#ffffb3" stroke="#000000" points="1256.8809,-122 1139.1191,-122 1139.1191,-86 1256.8809,-86 1256.8809,-122"/>
<text text-anchor="middle" x="1198" y="-99.8" font-family="Times,serif" font-size="14.00" fill="#000000">FooterComponent</text>
</g>
<!-- CoreModule -->
<g id="node6" class="node">
<title>CoreModule</title>
<polygon fill="#8dd3c7" stroke="#000000" points="823.2619,-187 820.2619,-191 799.2619,-191 796.2619,-187 736.7381,-187 736.7381,-151 823.2619,-151 823.2619,-187"/>
<text text-anchor="middle" x="780" y="-164.8" font-family="Times,serif" font-size="14.00" fill="#000000">CoreModule</text>
</g>
<!-- FooterComponent&#45;&gt;CoreModule -->
<g id="edge1" class="edge">
<title>FooterComponent&#45;&gt;CoreModule</title>
<path fill="none" stroke="#000000" d="M1198,-122.2921C1198,-144.2057 1198,-178 1198,-178 1198,-178 833.5504,-178 833.5504,-178"/>
<polygon fill="#000000" stroke="#000000" points="833.5504,-174.5001 823.5504,-178 833.5504,-181.5001 833.5504,-174.5001"/>
</g>
<!-- HeaderComponent -->
<g id="node2" class="node">
<title>HeaderComponent</title>
<polygon fill="#ffffb3" stroke="#000000" points="1120.7437,-122 999.2563,-122 999.2563,-86 1120.7437,-86 1120.7437,-122"/>
<text text-anchor="middle" x="1060" y="-99.8" font-family="Times,serif" font-size="14.00" fill="#000000">HeaderComponent</text>
</g>
<!-- HeaderComponent&#45;&gt;CoreModule -->
<g id="edge2" class="edge">
<title>HeaderComponent&#45;&gt;CoreModule</title>
<path fill="none" stroke="#000000" d="M1060,-122.1061C1060,-141.3391 1060,-169 1060,-169 1060,-169 833.4428,-169 833.4428,-169"/>
<polygon fill="#000000" stroke="#000000" points="833.4428,-165.5001 823.4428,-169 833.4427,-172.5001 833.4428,-165.5001"/>
</g>
<!-- LoginComponent -->
<g id="node3" class="node">
<title>LoginComponent</title>
<polygon fill="#ffffb3" stroke="#000000" points="981.2758,-122 866.7242,-122 866.7242,-86 981.2758,-86 981.2758,-122"/>
<text text-anchor="middle" x="924" y="-99.8" font-family="Times,serif" font-size="14.00" fill="#000000">LoginComponent</text>
</g>
<!-- LoginComponent&#45;&gt;CoreModule -->
<g id="edge3" class="edge">
<title>LoginComponent&#45;&gt;CoreModule</title>
<path fill="none" stroke="#000000" d="M924,-122.027C924,-138.3976 924,-160 924,-160 924,-160 833.5955,-160 833.5955,-160"/>
<polygon fill="#000000" stroke="#000000" points="833.5956,-156.5001 823.5955,-160 833.5955,-163.5001 833.5956,-156.5001"/>
</g>
<!-- NotFoundComponent -->
<g id="node4" class="node">
<title>NotFoundComponent</title>
<polygon fill="#ffffb3" stroke="#000000" points="849.1122,-122 710.8878,-122 710.8878,-86 849.1122,-86 849.1122,-122"/>
<text text-anchor="middle" x="780" y="-99.8" font-family="Times,serif" font-size="14.00" fill="#000000">NotFoundComponent</text>
</g>
<!-- NotFoundComponent&#45;&gt;CoreModule -->
<g id="edge4" class="edge">
<title>NotFoundComponent&#45;&gt;CoreModule</title>
<path fill="none" stroke="#000000" d="M765.5397,-122.1061C765.5397,-122.1061 765.5397,-140.991 765.5397,-140.991"/>
<polygon fill="#000000" stroke="#000000" points="762.0398,-140.9909 765.5397,-150.991 769.0398,-140.991 762.0398,-140.9909"/>
</g>
<!-- NotFoundComponent&#45;&gt;CoreModule -->
<g id="edge5" class="edge">
<title>NotFoundComponent&#45;&gt;CoreModule</title>
<path fill="none" stroke="#000000" d="M794.4603,-122.1061C794.4603,-122.1061 794.4603,-140.991 794.4603,-140.991"/>
<polygon fill="#000000" stroke="#000000" points="790.9604,-140.9909 794.4603,-150.991 797.9604,-140.991 790.9604,-140.9909"/>
</g>
<!-- ShellComponent -->
<g id="node5" class="node">
<title>ShellComponent</title>
<polygon fill="#ffffb3" stroke="#000000" points="693.1109,-122 582.8891,-122 582.8891,-86 693.1109,-86 693.1109,-122"/>
<text text-anchor="middle" x="638" y="-99.8" font-family="Times,serif" font-size="14.00" fill="#000000">ShellComponent</text>
</g>
<!-- ShellComponent&#45;&gt;CoreModule -->
<g id="edge6" class="edge">
<title>ShellComponent&#45;&gt;CoreModule</title>
<path fill="none" stroke="#000000" d="M638,-122.0091C638,-138.0494 638,-159 638,-159 638,-159 726.6237,-159 726.6237,-159"/>
<polygon fill="#000000" stroke="#000000" points="726.6238,-162.5001 736.6237,-159 726.6237,-155.5001 726.6238,-162.5001"/>
</g>
<!-- CoreRoutingModule -->
<g id="node7" class="node">
<title>CoreRoutingModule</title>
<polygon fill="#8dd3c7" stroke="#000000" points="558.8795,-122 555.8795,-126 534.8795,-126 531.8795,-122 427.1205,-122 427.1205,-86 558.8795,-86 558.8795,-122"/>
<text text-anchor="middle" x="493" y="-99.8" font-family="Times,serif" font-size="14.00" fill="#000000">CoreRoutingModule</text>
</g>
<!-- CoreRoutingModule&#45;&gt;CoreModule -->
<g id="edge7" class="edge">
<title>CoreRoutingModule&#45;&gt;CoreModule</title>
<path fill="none" stroke="#000000" d="M493,-122.2667C493,-140.5552 493,-166 493,-166 493,-166 726.7225,-166 726.7225,-166"/>
<polygon fill="#000000" stroke="#000000" points="726.7225,-169.5001 736.7225,-166 726.7224,-162.5001 726.7225,-169.5001"/>
</g>
<!-- AuthGuardService -->
<g id="node8" class="node">
<title>AuthGuardService</title>
<ellipse fill="#fdb462" stroke="#000000" cx="320" cy="-104" rx="83.3674" ry="18"/>
<text text-anchor="middle" x="320" y="-99.8" font-family="Times,serif" font-size="14.00" fill="#000000">AuthGuardService</text>
</g>
<!-- AuthGuardService&#45;&gt;CoreModule -->
<g id="edge8" class="edge">
<title>AuthGuardService&#45;&gt;CoreModule</title>
<path fill="none" stroke="#000000" d="M320,-122.1289C320,-142.5724 320,-173 320,-173 320,-173 726.7243,-173 726.7243,-173"/>
<polygon fill="#000000" stroke="#000000" points="726.7244,-176.5001 736.7243,-173 726.7243,-169.5001 726.7244,-176.5001"/>
</g>
<!-- AuthenticationService -->
<g id="node9" class="node">
<title>AuthenticationService</title>
<ellipse fill="#fdb462" stroke="#000000" cx="121" cy="-104" rx="97.2683" ry="18"/>
<text text-anchor="middle" x="121" y="-99.8" font-family="Times,serif" font-size="14.00" fill="#000000">AuthenticationService</text>
</g>
<!-- AuthenticationService&#45;&gt;CoreModule -->
<g id="edge9" class="edge">
<title>AuthenticationService&#45;&gt;CoreModule</title>
<path fill="none" stroke="#000000" d="M121,-122.0109C121,-144.4852 121,-180 121,-180 121,-180 726.5063,-180 726.5063,-180"/>
<polygon fill="#000000" stroke="#000000" points="726.5063,-183.5001 736.5063,-180 726.5063,-176.5001 726.5063,-183.5001"/>
</g>
<!-- CockpitComponent -->
<g id="node10" class="node">
<title>CockpitComponent</title>
<polygon fill="#ffffb3" stroke="#000000" points="1634.6652,-187 1509.3348,-187 1509.3348,-151 1634.6652,-151 1634.6652,-187"/>
<text text-anchor="middle" x="1572" y="-164.8" font-family="Times,serif" font-size="14.00" fill="#000000">CockpitComponent</text>
</g>
<!-- RemoteCenterModule -->
<g id="node12" class="node">
<title>RemoteCenterModule</title>
<polygon fill="#8dd3c7" stroke="#000000" points="1561.4144,-255 1558.4144,-259 1537.4144,-259 1534.4144,-255 1420.5856,-255 1420.5856,-219 1561.4144,-219 1561.4144,-255"/>
<text text-anchor="middle" x="1491" y="-232.8" font-family="Times,serif" font-size="14.00" fill="#000000">RemoteCenterModule</text>
</g>
<!-- CockpitComponent&#45;&gt;RemoteCenterModule -->
<g id="edge10" class="edge">
<title>CockpitComponent&#45;&gt;RemoteCenterModule</title>
<path fill="none" stroke="#000000" d="M1535.1873,-187.2228C1535.1873,-187.2228 1535.1873,-208.7269 1535.1873,-208.7269"/>
<polygon fill="#000000" stroke="#000000" points="1531.6873,-208.7269 1535.1873,-218.7269 1538.6873,-208.727 1531.6873,-208.7269"/>
</g>
<!-- RemoteCenterComponent -->
<g id="node11" class="node">
<title>RemoteCenterComponent</title>
<polygon fill="#ffffb3" stroke="#000000" points="1491.1965,-187 1328.8035,-187 1328.8035,-151 1491.1965,-151 1491.1965,-187"/>
<text text-anchor="middle" x="1410" y="-164.8" font-family="Times,serif" font-size="14.00" fill="#000000">RemoteCenterComponent</text>
</g>
<!-- RemoteCenterComponent&#45;&gt;RemoteCenterModule -->
<g id="edge11" class="edge">
<title>RemoteCenterComponent&#45;&gt;RemoteCenterModule</title>
<path fill="none" stroke="#000000" d="M1455.9457,-187.2228C1455.9457,-187.2228 1455.9457,-208.7269 1455.9457,-208.7269"/>
<polygon fill="#000000" stroke="#000000" points="1452.4457,-208.7269 1455.9457,-218.7269 1459.4457,-208.727 1452.4457,-208.7269"/>
</g>
<!-- RemoteCenterRoutingModule -->
<g id="node13" class="node">
<title>RemoteCenterRoutingModule</title>
<polygon fill="#8dd3c7" stroke="#000000" points="1844.5322,-187 1841.5322,-191 1820.5322,-191 1817.5322,-187 1659.4678,-187 1659.4678,-151 1844.5322,-151 1844.5322,-187"/>
<text text-anchor="middle" x="1752" y="-164.8" font-family="Times,serif" font-size="14.00" fill="#000000">RemoteCenterRoutingModule</text>
</g>
<!-- RemoteCenterRoutingModule&#45;&gt;RemoteCenterModule -->
<g id="edge12" class="edge">
<title>RemoteCenterRoutingModule&#45;&gt;RemoteCenterModule</title>
<path fill="none" stroke="#000000" d="M1752,-187.2667C1752,-205.5552 1752,-231 1752,-231 1752,-231 1571.2865,-231 1571.2865,-231"/>
<polygon fill="#000000" stroke="#000000" points="1571.2866,-227.5001 1561.2865,-231 1571.2865,-234.5001 1571.2866,-227.5001"/>
</g>
<!-- SharedModule -->
<g id="node14" class="node">
<title>SharedModule</title>
<polygon fill="#8dd3c7" stroke="#000000" points="1961.4231,-187 1958.4231,-191 1937.4231,-191 1934.4231,-187 1862.5769,-187 1862.5769,-151 1961.4231,-151 1961.4231,-187"/>
<text text-anchor="middle" x="1912" y="-164.8" font-family="Times,serif" font-size="14.00" fill="#000000">SharedModule</text>
</g>
<!-- SharedModule&#45;&gt;RemoteCenterModule -->
<g id="edge13" class="edge">
<title>SharedModule&#45;&gt;RemoteCenterModule</title>
<path fill="none" stroke="#000000" d="M1912,-187.2921C1912,-209.2057 1912,-243 1912,-243 1912,-243 1571.4659,-243 1571.4659,-243"/>
<polygon fill="#000000" stroke="#000000" points="1571.466,-239.5001 1561.4659,-243 1571.4659,-246.5001 1571.466,-239.5001"/>
</g>
<!-- ArrayFilterPipe  -->
<g id="node22" class="node">
<title>ArrayFilterPipe </title>
<polygon fill="#fb8072" stroke="#000000" points="2414.8604,-255 2307.1396,-255 2307.1396,-219 2414.8604,-219 2414.8604,-255"/>
<text text-anchor="middle" x="2361" y="-232.8" font-family="Times,serif" font-size="14.00" fill="#000000">ArrayFilterPipe </text>
</g>
<!-- SharedModule&#45;&gt;ArrayFilterPipe  -->
<g id="edge21" class="edge">
<title>SharedModule&#45;&gt;ArrayFilterPipe </title>
<path fill="none" stroke="#000000" stroke-dasharray="5,2" d="M1961.3352,-174C2077.9732,-174 2361,-174 2361,-174 2361,-174 2361,-208.7778 2361,-208.7778"/>
<polygon fill="#000000" stroke="#000000" points="2357.5001,-208.7778 2361,-218.7778 2364.5001,-208.7778 2357.5001,-208.7778"/>
</g>
<!-- BytesPipe  -->
<g id="node23" class="node">
<title>BytesPipe </title>
<polygon fill="#fb8072" stroke="#000000" points="2289.2747,-255 2212.7253,-255 2212.7253,-219 2289.2747,-219 2289.2747,-255"/>
<text text-anchor="middle" x="2251" y="-232.8" font-family="Times,serif" font-size="14.00" fill="#000000">BytesPipe </text>
</g>
<!-- SharedModule&#45;&gt;BytesPipe  -->
<g id="edge22" class="edge">
<title>SharedModule&#45;&gt;BytesPipe </title>
<path fill="none" stroke="#000000" stroke-dasharray="5,2" d="M1961.2935,-178C2055.3144,-178 2251,-178 2251,-178 2251,-178 2251,-208.9775 2251,-208.9775"/>
<polygon fill="#000000" stroke="#000000" points="2247.5001,-208.9774 2251,-218.9775 2254.5001,-208.9775 2247.5001,-208.9774"/>
</g>
<!-- DurationPipe  -->
<g id="node24" class="node">
<title>DurationPipe </title>
<polygon fill="#fb8072" stroke="#000000" points="2195.1509,-255 2100.8491,-255 2100.8491,-219 2195.1509,-219 2195.1509,-255"/>
<text text-anchor="middle" x="2148" y="-232.8" font-family="Times,serif" font-size="14.00" fill="#000000">DurationPipe </text>
</g>
<!-- SharedModule&#45;&gt;DurationPipe  -->
<g id="edge23" class="edge">
<title>SharedModule&#45;&gt;DurationPipe </title>
<path fill="none" stroke="#000000" stroke-dasharray="5,2" d="M1961.4733,-181C2030.6761,-181 2148,-181 2148,-181 2148,-181 2148,-208.973 2148,-208.973"/>
<polygon fill="#000000" stroke="#000000" points="2144.5001,-208.973 2148,-218.973 2151.5001,-208.973 2144.5001,-208.973"/>
</g>
<!-- SearchPipe  -->
<g id="node25" class="node">
<title>SearchPipe </title>
<polygon fill="#fb8072" stroke="#000000" points="2083.4762,-255 2000.5238,-255 2000.5238,-219 2083.4762,-219 2083.4762,-255"/>
<text text-anchor="middle" x="2042" y="-232.8" font-family="Times,serif" font-size="14.00" fill="#000000">SearchPipe </text>
</g>
<!-- SharedModule&#45;&gt;SearchPipe  -->
<g id="edge24" class="edge">
<title>SharedModule&#45;&gt;SearchPipe </title>
<path fill="none" stroke="#000000" stroke-dasharray="5,2" d="M1961.5183,-184C1998.2562,-184 2042,-184 2042,-184 2042,-184 2042,-208.7604 2042,-208.7604"/>
<polygon fill="#000000" stroke="#000000" points="2038.5001,-208.7604 2042,-218.7604 2045.5001,-208.7604 2038.5001,-208.7604"/>
</g>
<!-- SlugifyPipe  -->
<g id="node26" class="node">
<title>SlugifyPipe </title>
<polygon fill="#fb8072" stroke="#000000" points="2517.6131,-255 2432.3869,-255 2432.3869,-219 2517.6131,-219 2517.6131,-255"/>
<text text-anchor="middle" x="2475" y="-232.8" font-family="Times,serif" font-size="14.00" fill="#000000">SlugifyPipe </text>
</g>
<!-- SharedModule&#45;&gt;SlugifyPipe  -->
<g id="edge25" class="edge">
<title>SharedModule&#45;&gt;SlugifyPipe </title>
<path fill="none" stroke="#000000" stroke-dasharray="5,2" d="M1961.4691,-171C2098.8514,-171 2475,-171 2475,-171 2475,-171 2475,-208.9652 2475,-208.9652"/>
<polygon fill="#000000" stroke="#000000" points="2471.5001,-208.9652 2475,-218.9652 2478.5001,-208.9652 2471.5001,-208.9652"/>
</g>
<!-- ObsWebsocketService -->
<g id="node15" class="node">
<title>ObsWebsocketService</title>
<ellipse fill="#fdb462" stroke="#000000" cx="1395" cy="-104" rx="98.3946" ry="18"/>
<text text-anchor="middle" x="1395" y="-99.8" font-family="Times,serif" font-size="14.00" fill="#000000">ObsWebsocketService</text>
</g>
<!-- ObsWebsocketService&#45;&gt;RemoteCenterModule -->
<g id="edge14" class="edge">
<title>ObsWebsocketService&#45;&gt;RemoteCenterModule</title>
<path fill="none" stroke="#000000" d="M1487.9816,-98C1494.5722,-98 1498.6874,-98 1498.6874,-98 1498.6874,-98 1498.6874,-208.8282 1498.6874,-208.8282"/>
<polygon fill="#000000" stroke="#000000" points="1495.1875,-208.8281 1498.6874,-218.8282 1502.1875,-208.8282 1495.1875,-208.8281"/>
</g>
<!-- WebsocketService -->
<g id="node16" class="node">
<title>WebsocketService</title>
<ellipse fill="#fdb462" stroke="#000000" cx="1594" cy="-104" rx="82.7839" ry="18"/>
<text text-anchor="middle" x="1594" y="-99.8" font-family="Times,serif" font-size="14.00" fill="#000000">WebsocketService</text>
</g>
<!-- WebsocketService&#45;&gt;RemoteCenterModule -->
<g id="edge15" class="edge">
<title>WebsocketService&#45;&gt;RemoteCenterModule</title>
<path fill="none" stroke="#000000" d="M1515.7029,-110C1508.551,-110 1503.9275,-110 1503.9275,-110 1503.9275,-110 1503.9275,-208.804 1503.9275,-208.804"/>
<polygon fill="#000000" stroke="#000000" points="1500.4276,-208.804 1503.9275,-218.804 1507.4276,-208.804 1500.4276,-208.804"/>
</g>
<!-- WebsocketService&#45;&gt;SharedModule -->
<g id="edge26" class="edge">
<title>WebsocketService&#45;&gt;SharedModule</title>
<path fill="none" stroke="#000000" d="M1677.1354,-104C1771.3559,-104 1912,-104 1912,-104 1912,-104 1912,-140.8939 1912,-140.8939"/>
<polygon fill="#000000" stroke="#000000" points="1908.5001,-140.8938 1912,-150.8939 1915.5001,-140.8939 1908.5001,-140.8938"/>
</g>
<!-- ArrayFilterPipe -->
<g id="node17" class="node">
<title>ArrayFilterPipe</title>
<polygon fill="#ffffb3" stroke="#000000" points="2941.8599,-255 2838.1401,-255 2838.1401,-219 2941.8599,-219 2941.8599,-255"/>
<text text-anchor="middle" x="2890" y="-232.8" font-family="Times,serif" font-size="14.00" fill="#000000">ArrayFilterPipe</text>
</g>
<!-- ArrayFilterPipe&#45;&gt;SharedModule -->
<g id="edge16" class="edge">
<title>ArrayFilterPipe&#45;&gt;SharedModule</title>
<path fill="none" stroke="#000000" d="M2890,-218.6772C2890,-195.3398 2890,-158 2890,-158 2890,-158 1971.5061,-158 1971.5061,-158"/>
<polygon fill="#000000" stroke="#000000" points="1971.5061,-154.5001 1961.5061,-158 1971.506,-161.5001 1971.5061,-154.5001"/>
</g>
<!-- BytesPipe -->
<g id="node18" class="node">
<title>BytesPipe</title>
<polygon fill="#ffffb3" stroke="#000000" points="2820.2745,-255 2747.7255,-255 2747.7255,-219 2820.2745,-219 2820.2745,-255"/>
<text text-anchor="middle" x="2784" y="-232.8" font-family="Times,serif" font-size="14.00" fill="#000000">BytesPipe</text>
</g>
<!-- BytesPipe&#45;&gt;SharedModule -->
<g id="edge17" class="edge">
<title>BytesPipe&#45;&gt;SharedModule</title>
<path fill="none" stroke="#000000" d="M2784,-218.9891C2784,-196.5148 2784,-161 2784,-161 2784,-161 1971.381,-161 1971.381,-161"/>
<polygon fill="#000000" stroke="#000000" points="1971.381,-157.5001 1961.381,-161 1971.3809,-164.5001 1971.381,-157.5001"/>
</g>
<!-- DurationPipe -->
<g id="node19" class="node">
<title>DurationPipe</title>
<polygon fill="#ffffb3" stroke="#000000" points="2729.1515,-255 2638.8485,-255 2638.8485,-219 2729.1515,-219 2729.1515,-255"/>
<text text-anchor="middle" x="2684" y="-232.8" font-family="Times,serif" font-size="14.00" fill="#000000">DurationPipe</text>
</g>
<!-- DurationPipe&#45;&gt;SharedModule -->
<g id="edge18" class="edge">
<title>DurationPipe&#45;&gt;SharedModule</title>
<path fill="none" stroke="#000000" d="M2684,-218.8314C2684,-197.502 2684,-165 2684,-165 2684,-165 1971.4665,-165 1971.4665,-165"/>
<polygon fill="#000000" stroke="#000000" points="1971.4665,-161.5001 1961.4665,-165 1971.4664,-168.5001 1971.4665,-161.5001"/>
</g>
<!-- SearchPipe -->
<g id="node20" class="node">
<title>SearchPipe</title>
<polygon fill="#ffffb3" stroke="#000000" points="2620.4748,-255 2541.5252,-255 2541.5252,-219 2620.4748,-219 2620.4748,-255"/>
<text text-anchor="middle" x="2581" y="-232.8" font-family="Times,serif" font-size="14.00" fill="#000000">SearchPipe</text>
</g>
<!-- SearchPipe&#45;&gt;SharedModule -->
<g id="edge19" class="edge">
<title>SearchPipe&#45;&gt;SharedModule</title>
<path fill="none" stroke="#000000" d="M2581,-218.8711C2581,-198.4276 2581,-168 2581,-168 2581,-168 1971.4649,-168 1971.4649,-168"/>
<polygon fill="#000000" stroke="#000000" points="1971.4649,-164.5001 1961.4649,-168 1971.4648,-171.5001 1971.4649,-164.5001"/>
</g>
<!-- SlugifyPipe -->
<g id="node21" class="node">
<title>SlugifyPipe</title>
<polygon fill="#ffffb3" stroke="#000000" points="3042.1123,-255 2959.8877,-255 2959.8877,-219 3042.1123,-219 3042.1123,-255"/>
<text text-anchor="middle" x="3001" y="-232.8" font-family="Times,serif" font-size="14.00" fill="#000000">SlugifyPipe</text>
</g>
<!-- SlugifyPipe&#45;&gt;SharedModule -->
<g id="edge20" class="edge">
<title>SlugifyPipe&#45;&gt;SharedModule</title>
<path fill="none" stroke="#000000" d="M3001,-218.8015C3001,-194.6437 3001,-155 3001,-155 3001,-155 1971.2642,-155 1971.2642,-155"/>
<polygon fill="#000000" stroke="#000000" points="1971.2642,-151.5001 1961.2642,-155 1971.2641,-158.5001 1971.2642,-151.5001"/>
</g>
</g>
</svg>
