<?xml version="1.0" encoding="UTF-8" standalone="no"?>
<!DOCTYPE svg PUBLIC "-//W3C//DTD SVG 1.1//EN"
 "http://www.w3.org/Graphics/SVG/1.1/DTD/svg11.dtd">
<!-- Generated by graphviz version 2.40.1 (20161225.0304)
 -->
<!-- Title: dependencies Pages: 1 -->
<svg width="2161pt" height="366pt"
 viewBox="0.00 0.00 2161.00 366.00" xmlns="http://www.w3.org/2000/svg" xmlns:xlink="http://www.w3.org/1999/xlink">
<g id="graph0" class="graph" transform="scale(1 1) rotate(0) translate(4 362)">
<title>dependencies</title>
<polygon fill="#ffffff" stroke="transparent" points="-4,4 -4,-362 2157,-362 2157,4 -4,4"/>
<text text-anchor="start" x="1055.5091" y="-42.4" font-family="sans-serif" font-weight="bold" font-size="14.00" fill="#000000">Legend</text>
<polygon fill="#ffffb3" stroke="transparent" points="842.5,-10 842.5,-30 862.5,-30 862.5,-10 842.5,-10"/>
<text text-anchor="start" x="866.129" y="-15.4" font-family="sans-serif" font-size="14.00" fill="#000000"> &#160;Declarations</text>
<polygon fill="#8dd3c7" stroke="transparent" points="955.5,-10 955.5,-30 975.5,-30 975.5,-10 955.5,-10"/>
<text text-anchor="start" x="979.2251" y="-15.4" font-family="sans-serif" font-size="14.00" fill="#000000"> &#160;Module</text>
<polygon fill="#80b1d3" stroke="transparent" points="1041.5,-10 1041.5,-30 1061.5,-30 1061.5,-10 1041.5,-10"/>
<text text-anchor="start" x="1065.2812" y="-15.4" font-family="sans-serif" font-size="14.00" fill="#000000"> &#160;Bootstrap</text>
<polygon fill="#fdb462" stroke="transparent" points="1138.5,-10 1138.5,-30 1158.5,-30 1158.5,-10 1138.5,-10"/>
<text text-anchor="start" x="1162.1732" y="-15.4" font-family="sans-serif" font-size="14.00" fill="#000000"> &#160;Providers</text>
<polygon fill="#fb8072" stroke="transparent" points="1234.5,-10 1234.5,-30 1254.5,-30 1254.5,-10 1234.5,-10"/>
<text text-anchor="start" x="1258.2258" y="-15.4" font-family="sans-serif" font-size="14.00" fill="#000000"> &#160;Exports</text>
<g id="clust1" class="cluster">
<title>cluster_AppModule</title>
<polygon fill="none" stroke="#000000" stroke-dasharray="1,5" points="550,-146 550,-350 1062,-350 1062,-146 550,-146"/>
</g>
<g id="clust2" class="cluster">
<title>cluster_AppModule_declarations</title>
<polygon fill="none" stroke="#000000" points="558,-154 558,-206 680,-206 680,-154 558,-154"/>
</g>
<g id="clust4" class="cluster">
<title>cluster_AppModule_imports</title>
<polygon fill="none" stroke="#000000" points="688,-154 688,-206 1054,-206 1054,-154 688,-154"/>
</g>
<g id="clust6" class="cluster">
<title>cluster_AppModule_bootstrap</title>
<polygon fill="none" stroke="#000000" points="740,-290 740,-342 864,-342 864,-290 740,-290"/>
</g>
<g id="clust14" class="cluster">
<title>cluster_CoreModule</title>
<polygon fill="none" stroke="#000000" stroke-dasharray="1,5" points="8,-70 8,-138 1088,-138 1088,-70 8,-70"/>
</g>
<g id="clust15" class="cluster">
<title>cluster_CoreModule_declarations</title>
<polygon fill="none" stroke="#000000" points="390,-78 390,-130 1080,-130 1080,-78 390,-78"/>
</g>
<g id="clust21" class="cluster">
<title>cluster_CoreModule_imports</title>
<polygon fill="none" stroke="#000000" points="234,-78 234,-130 382,-130 382,-78 234,-78"/>
</g>
<g id="clust24" class="cluster">
<title>cluster_CoreModule_providers</title>
<polygon fill="none" stroke="#000000" points="16,-78 16,-130 226,-130 226,-78 16,-78"/>
</g>
<g id="clust31" class="cluster">
<title>cluster_RemoteCenterModule</title>
<polygon fill="none" stroke="#000000" stroke-dasharray="1,5" points="1096,-70 1096,-206 2048,-206 2048,-70 1096,-70"/>
</g>
<g id="clust32" class="cluster">
<title>cluster_RemoteCenterModule_declarations</title>
<polygon fill="none" stroke="#000000" points="1718,-78 1718,-130 2040,-130 2040,-78 1718,-78"/>
</g>
<g id="clust35" class="cluster">
<title>cluster_RemoteCenterModule_imports</title>
<polygon fill="none" stroke="#000000" points="1508,-78 1508,-130 1710,-130 1710,-78 1508,-78"/>
</g>
<g id="clust38" class="cluster">
<title>cluster_RemoteCenterModule_providers</title>
<polygon fill="none" stroke="#000000" points="1104,-78 1104,-130 1500,-130 1500,-78 1104,-78"/>
</g>
<g id="clust45" class="cluster">
<title>cluster_SharedModule</title>
<polygon fill="none" stroke="#000000" stroke-dasharray="1,5" points="1070,-214 1070,-282 2145,-282 2145,-214 1070,-214"/>
</g>
<g id="clust46" class="cluster">
<title>cluster_SharedModule_declarations</title>
<polygon fill="none" stroke="#000000" points="1620,-222 1620,-274 2137,-274 2137,-222 1620,-222"/>
</g>
<g id="clust53" class="cluster">
<title>cluster_SharedModule_exports</title>
<polygon fill="none" stroke="#000000" points="1078,-222 1078,-274 1612,-274 1612,-222 1078,-222"/>
</g>
<!-- AppComponent -->
<g id="node1" class="node">
<title>AppComponent</title>
<polygon fill="#ffffb3" stroke="#000000" points="671.9399,-198 566.0601,-198 566.0601,-162 671.9399,-162 671.9399,-198"/>
<text text-anchor="middle" x="619" y="-175.8" font-family="Times,serif" font-size="14.00" fill="#000000">AppComponent</text>
</g>
<!-- AppModule -->
<g id="node2" class="node">
<title>AppModule</title>
<polygon fill="#8dd3c7" stroke="#000000" points="843.6571,-266 840.6571,-270 819.6571,-270 816.6571,-266 760.3429,-266 760.3429,-230 843.6571,-230 843.6571,-266"/>
<text text-anchor="middle" x="802" y="-243.8" font-family="Times,serif" font-size="14.00" fill="#000000">AppModule</text>
</g>
<!-- AppComponent&#45;&gt;AppModule -->
<g id="edge1" class="edge">
<title>AppComponent&#45;&gt;AppModule</title>
<path fill="none" stroke="#000000" d="M619,-198.2228C619,-218.3652 619,-248 619,-248 619,-248 750.0161,-248 750.0161,-248"/>
<polygon fill="#000000" stroke="#000000" points="750.0161,-251.5001 760.0161,-248 750.0161,-244.5001 750.0161,-251.5001"/>
</g>
<!-- AppComponent  -->
<g id="node6" class="node">
<title>AppComponent </title>
<polygon fill="#80b1d3" stroke="#000000" points="856.439,-334 747.561,-334 747.561,-298 856.439,-298 856.439,-334"/>
<text text-anchor="middle" x="802" y="-311.8" font-family="Times,serif" font-size="14.00" fill="#000000">AppComponent </text>
</g>
<!-- AppModule&#45;&gt;AppComponent  -->
<g id="edge5" class="edge">
<title>AppModule&#45;&gt;AppComponent </title>
<path fill="none" stroke="#000000" stroke-dasharray="1,5" d="M802,-266.2228C802,-266.2228 802,-287.7269 802,-287.7269"/>
<polygon fill="#000000" stroke="#000000" points="798.5001,-287.7269 802,-297.7269 805.5001,-287.727 798.5001,-287.7269"/>
</g>
<!-- AppRoutingModule -->
<g id="node3" class="node">
<title>AppRoutingModule</title>
<polygon fill="#8dd3c7" stroke="#000000" points="929.2744,-198 926.2744,-202 905.2744,-202 902.2744,-198 800.7256,-198 800.7256,-162 929.2744,-162 929.2744,-198"/>
<text text-anchor="middle" x="865" y="-175.8" font-family="Times,serif" font-size="14.00" fill="#000000">AppRoutingModule</text>
</g>
<!-- AppRoutingModule&#45;&gt;AppModule -->
<g id="edge2" class="edge">
<title>AppRoutingModule&#45;&gt;AppModule</title>
<path fill="none" stroke="#000000" d="M822.2206,-198.2228C822.2206,-198.2228 822.2206,-219.7269 822.2206,-219.7269"/>
<polygon fill="#000000" stroke="#000000" points="818.7206,-219.7269 822.2206,-229.7269 825.7206,-219.727 818.7206,-219.7269"/>
</g>
<!-- CoreModule -->
<g id="node4" class="node">
<title>CoreModule</title>
<polygon fill="#8dd3c7" stroke="#000000" points="782.2619,-198 779.2619,-202 758.2619,-202 755.2619,-198 695.7381,-198 695.7381,-162 782.2619,-162 782.2619,-198"/>
<text text-anchor="middle" x="739" y="-175.8" font-family="Times,serif" font-size="14.00" fill="#000000">CoreModule</text>
</g>
<!-- CoreModule&#45;&gt;AppModule -->
<g id="edge3" class="edge">
<title>CoreModule&#45;&gt;AppModule</title>
<path fill="none" stroke="#000000" d="M771.2763,-198.2228C771.2763,-198.2228 771.2763,-219.7269 771.2763,-219.7269"/>
<polygon fill="#000000" stroke="#000000" points="767.7764,-219.7269 771.2763,-229.7269 774.7764,-219.727 767.7764,-219.7269"/>
</g>
<!-- SharedModule -->
<g id="node5" class="node">
<title>SharedModule</title>
<polygon fill="#8dd3c7" stroke="#000000" points="1046.4231,-198 1043.4231,-202 1022.4231,-202 1019.4231,-198 947.5769,-198 947.5769,-162 1046.4231,-162 1046.4231,-198"/>
<text text-anchor="middle" x="997" y="-175.8" font-family="Times,serif" font-size="14.00" fill="#000000">SharedModule</text>
</g>
<!-- SharedModule&#45;&gt;AppModule -->
<g id="edge4" class="edge">
<title>SharedModule&#45;&gt;AppModule</title>
<path fill="none" stroke="#000000" d="M1033.9083,-198.2228C1033.9083,-218.3652 1033.9083,-248 1033.9083,-248 1033.9083,-248 853.7284,-248 853.7284,-248"/>
<polygon fill="#000000" stroke="#000000" points="853.7284,-244.5001 843.7284,-248 853.7284,-251.5001 853.7284,-244.5001"/>
</g>
<!-- RemoteCenterModule -->
<g id="node16" class="node">
<title>RemoteCenterModule</title>
<polygon fill="#8dd3c7" stroke="#000000" points="1571.4144,-198 1568.4144,-202 1547.4144,-202 1544.4144,-198 1430.5856,-198 1430.5856,-162 1571.4144,-162 1571.4144,-198"/>
<text text-anchor="middle" x="1501" y="-175.8" font-family="Times,serif" font-size="14.00" fill="#000000">RemoteCenterModule</text>
</g>
<!-- SharedModule&#45;&gt;RemoteCenterModule -->
<g id="edge16" class="edge">
<title>SharedModule&#45;&gt;RemoteCenterModule</title>
<path fill="none" stroke="#000000" d="M1046.2433,-176C1046.2433,-176 1420.7201,-176 1420.7201,-176"/>
<polygon fill="#000000" stroke="#000000" points="1420.7201,-179.5001 1430.7201,-176 1420.72,-172.5001 1420.7201,-179.5001"/>
</g>
<!-- ArrayFilterPipe  -->
<g id="node25" class="node">
<title>ArrayFilterPipe </title>
<polygon fill="#fb8072" stroke="#000000" points="1603.8604,-266 1496.1396,-266 1496.1396,-230 1603.8604,-230 1603.8604,-266"/>
<text text-anchor="middle" x="1550" y="-243.8" font-family="Times,serif" font-size="14.00" fill="#000000">ArrayFilterPipe </text>
</g>
<!-- SharedModule&#45;&gt;ArrayFilterPipe  -->
<g id="edge24" class="edge">
<title>SharedModule&#45;&gt;ArrayFilterPipe </title>
<path fill="none" stroke="#000000" stroke-dasharray="5,2" d="M1021.6056,-198.1804C1021.6056,-211.0382 1021.6056,-226 1021.6056,-226 1021.6056,-226 1533.7635,-226 1533.7635,-226 1533.7635,-226 1533.7635,-226.3832 1533.7635,-226.3832"/>
<polygon fill="#000000" stroke="#000000" points="1530.2638,-219.832 1533.7635,-229.8321 1537.2638,-219.8322 1530.2638,-219.832"/>
</g>
<!-- BytesPipe  -->
<g id="node26" class="node">
<title>BytesPipe </title>
<polygon fill="#fb8072" stroke="#000000" points="1478.2747,-266 1401.7253,-266 1401.7253,-230 1478.2747,-230 1478.2747,-266"/>
<text text-anchor="middle" x="1440" y="-243.8" font-family="Times,serif" font-size="14.00" fill="#000000">BytesPipe </text>
</g>
<!-- SharedModule&#45;&gt;BytesPipe  -->
<g id="edge25" class="edge">
<title>SharedModule&#45;&gt;BytesPipe </title>
<path fill="none" stroke="#000000" stroke-dasharray="5,2" d="M1046.3353,-180C1157.1813,-180 1416.328,-180 1416.328,-180 1416.328,-180 1416.328,-219.7772 1416.328,-219.7772"/>
<polygon fill="#000000" stroke="#000000" points="1412.8281,-219.7772 1416.328,-229.7772 1419.8281,-219.7773 1412.8281,-219.7772"/>
</g>
<!-- DurationPipe  -->
<g id="node27" class="node">
<title>DurationPipe </title>
<polygon fill="#fb8072" stroke="#000000" points="1384.1509,-266 1289.8491,-266 1289.8491,-230 1384.1509,-230 1384.1509,-266"/>
<text text-anchor="middle" x="1337" y="-243.8" font-family="Times,serif" font-size="14.00" fill="#000000">DurationPipe </text>
</g>
<!-- SharedModule&#45;&gt;DurationPipe  -->
<g id="edge26" class="edge">
<title>SharedModule&#45;&gt;DurationPipe </title>
<path fill="none" stroke="#000000" stroke-dasharray="5,2" d="M1046.482,-185C1141.4177,-185 1339.814,-185 1339.814,-185 1339.814,-185 1339.814,-219.7778 1339.814,-219.7778"/>
<polygon fill="#000000" stroke="#000000" points="1336.3141,-219.7778 1339.814,-229.7778 1343.3141,-219.7778 1336.3141,-219.7778"/>
</g>
<!-- SearchPipe  -->
<g id="node28" class="node">
<title>SearchPipe </title>
<polygon fill="#fb8072" stroke="#000000" points="1272.4762,-266 1189.5238,-266 1189.5238,-230 1272.4762,-230 1272.4762,-266"/>
<text text-anchor="middle" x="1231" y="-243.8" font-family="Times,serif" font-size="14.00" fill="#000000">SearchPipe </text>
</g>
<!-- SharedModule&#45;&gt;SearchPipe  -->
<g id="edge27" class="edge">
<title>SharedModule&#45;&gt;SearchPipe </title>
<path fill="none" stroke="#000000" stroke-dasharray="5,2" d="M1046.4293,-189C1111.3676,-189 1217.2542,-189 1217.2542,-189 1217.2542,-189 1217.2542,-219.9775 1217.2542,-219.9775"/>
<polygon fill="#000000" stroke="#000000" points="1213.7543,-219.9774 1217.2542,-229.9775 1220.7543,-219.9775 1213.7543,-219.9774"/>
</g>
<!-- SlugifyPipe  -->
<g id="node29" class="node">
<title>SlugifyPipe </title>
<polygon fill="#fb8072" stroke="#000000" points="1171.6131,-266 1086.3869,-266 1086.3869,-230 1171.6131,-230 1171.6131,-266"/>
<text text-anchor="middle" x="1129" y="-243.8" font-family="Times,serif" font-size="14.00" fill="#000000">SlugifyPipe </text>
</g>
<!-- SharedModule&#45;&gt;SlugifyPipe  -->
<g id="edge28" class="edge">
<title>SharedModule&#45;&gt;SlugifyPipe </title>
<path fill="none" stroke="#000000" stroke-dasharray="5,2" d="M1046.2802,-194C1072.4021,-194 1099.151,-194 1099.151,-194 1099.151,-194 1099.151,-219.7181 1099.151,-219.7181"/>
<polygon fill="#000000" stroke="#000000" points="1095.6511,-219.718 1099.151,-229.7181 1102.6511,-219.7181 1095.6511,-219.718"/>
</g>
<!-- FooterComponent -->
<g id="node7" class="node">
<title>FooterComponent</title>
<polygon fill="#ffffb3" stroke="#000000" points="1071.8809,-122 954.1191,-122 954.1191,-86 1071.8809,-86 1071.8809,-122"/>
<text text-anchor="middle" x="1013" y="-99.8" font-family="Times,serif" font-size="14.00" fill="#000000">FooterComponent</text>
</g>
<!-- FooterComponent&#45;&gt;CoreModule -->
<g id="edge6" class="edge">
<title>FooterComponent&#45;&gt;CoreModule</title>
<path fill="none" stroke="#000000" d="M1000.1354,-122.1871C1000.1354,-137.1824 1000.1354,-156 1000.1354,-156 1000.1354,-156 769.9863,-156 769.9863,-156 769.9863,-156 769.9863,-156.581 769.9863,-156.581"/>
<polygon fill="#000000" stroke="#000000" points="766.4865,-151.8097 769.9863,-161.8097 773.4865,-151.8098 766.4865,-151.8097"/>
</g>
<!-- HeaderComponent -->
<g id="node8" class="node">
<title>HeaderComponent</title>
<polygon fill="#ffffb3" stroke="#000000" points="935.7437,-122 814.2563,-122 814.2563,-86 935.7437,-86 935.7437,-122"/>
<text text-anchor="middle" x="875" y="-99.8" font-family="Times,serif" font-size="14.00" fill="#000000">HeaderComponent</text>
</g>
<!-- HeaderComponent&#45;&gt;CoreModule -->
<g id="edge7" class="edge">
<title>HeaderComponent&#45;&gt;CoreModule</title>
<path fill="none" stroke="#000000" d="M871.7577,-122.0439C871.7577,-134.5633 871.7577,-149 871.7577,-149 871.7577,-149 757.5918,-149 757.5918,-149 757.5918,-149 757.5918,-151.9672 757.5918,-151.9672"/>
<polygon fill="#000000" stroke="#000000" points="754.0919,-151.9671 757.5918,-161.9672 761.0919,-151.9672 754.0919,-151.9671"/>
</g>
<!-- LoginComponent -->
<g id="node9" class="node">
<title>LoginComponent</title>
<polygon fill="#ffffb3" stroke="#000000" points="796.2758,-122 681.7242,-122 681.7242,-86 796.2758,-86 796.2758,-122"/>
<text text-anchor="middle" x="739" y="-99.8" font-family="Times,serif" font-size="14.00" fill="#000000">LoginComponent</text>
</g>
<!-- LoginComponent&#45;&gt;CoreModule -->
<g id="edge8" class="edge">
<title>LoginComponent&#45;&gt;CoreModule</title>
<path fill="none" stroke="#000000" d="M745.1973,-122.0109C745.1973,-122.0109 745.1973,-151.855 745.1973,-151.855"/>
<polygon fill="#000000" stroke="#000000" points="741.6974,-151.8549 745.1973,-161.855 748.6974,-151.855 741.6974,-151.8549"/>
</g>
<!-- NotFoundComponent -->
<g id="node10" class="node">
<title>NotFoundComponent</title>
<polygon fill="#ffffb3" stroke="#000000" points="664.1122,-122 525.8878,-122 525.8878,-86 664.1122,-86 664.1122,-122"/>
<text text-anchor="middle" x="595" y="-99.8" font-family="Times,serif" font-size="14.00" fill="#000000">NotFoundComponent</text>
</g>
<!-- NotFoundComponent&#45;&gt;CoreModule -->
<g id="edge9" class="edge">
<title>NotFoundComponent&#45;&gt;CoreModule</title>
<path fill="none" stroke="#000000" d="M664.2626,-104C671.72,-104 676.6659,-104 676.6659,-104 676.6659,-104 676.6659,-180 676.6659,-180 676.6659,-180 685.7069,-180 685.7069,-180"/>
<polygon fill="#000000" stroke="#000000" points="685.7069,-183.5001 695.7069,-180 685.7068,-176.5001 685.7069,-183.5001"/>
</g>
<!-- ShellComponent -->
<g id="node11" class="node">
<title>ShellComponent</title>
<polygon fill="#ffffb3" stroke="#000000" points="508.1109,-122 397.8891,-122 397.8891,-86 508.1109,-86 508.1109,-122"/>
<text text-anchor="middle" x="453" y="-99.8" font-family="Times,serif" font-size="14.00" fill="#000000">ShellComponent</text>
</g>
<!-- ShellComponent&#45;&gt;CoreModule -->
<g id="edge10" class="edge">
<title>ShellComponent&#45;&gt;CoreModule</title>
<path fill="none" stroke="#000000" d="M453,-122.1686C453,-126.0459 453,-129 453,-129 453,-129 732.8027,-129 732.8027,-129 732.8027,-129 732.8027,-151.8757 732.8027,-151.8757"/>
<polygon fill="#000000" stroke="#000000" points="729.3028,-151.8757 732.8027,-161.8757 736.3028,-151.8757 729.3028,-151.8757"/>
</g>
<!-- CoreRoutingModule -->
<g id="node12" class="node">
<title>CoreRoutingModule</title>
<polygon fill="#8dd3c7" stroke="#000000" points="373.8795,-122 370.8795,-126 349.8795,-126 346.8795,-122 242.1205,-122 242.1205,-86 373.8795,-86 373.8795,-122"/>
<text text-anchor="middle" x="308" y="-99.8" font-family="Times,serif" font-size="14.00" fill="#000000">CoreRoutingModule</text>
</g>
<!-- CoreRoutingModule&#45;&gt;CoreModule -->
<g id="edge11" class="edge">
<title>CoreRoutingModule&#45;&gt;CoreModule</title>
<path fill="none" stroke="#000000" d="M308,-122.2434C308,-129.4297 308,-136 308,-136 308,-136 720.4082,-136 720.4082,-136 720.4082,-136 720.4082,-151.8495 720.4082,-151.8495"/>
<polygon fill="#000000" stroke="#000000" points="716.9083,-151.8494 720.4082,-161.8495 723.9083,-151.8495 716.9083,-151.8494"/>
</g>
<!-- AuthenticationService -->
<g id="node13" class="node">
<title>AuthenticationService</title>
<ellipse fill="#fdb462" stroke="#000000" cx="121" cy="-104" rx="97.2683" ry="18"/>
<text text-anchor="middle" x="121" y="-99.8" font-family="Times,serif" font-size="14.00" fill="#000000">AuthenticationService</text>
</g>
<!-- AuthenticationService&#45;&gt;CoreModule -->
<g id="edge12" class="edge">
<title>AuthenticationService&#45;&gt;CoreModule</title>
<path fill="none" stroke="#000000" d="M121,-122.1097C121,-131.897 121,-142 121,-142 121,-142 708.0137,-142 708.0137,-142 708.0137,-142 708.0137,-151.8903 708.0137,-151.8903"/>
<polygon fill="#000000" stroke="#000000" points="704.5138,-151.8903 708.0137,-161.8903 711.5138,-151.8904 704.5138,-151.8903"/>
</g>
<!-- CockpitComponent -->
<g id="node14" class="node">
<title>CockpitComponent</title>
<polygon fill="#ffffb3" stroke="#000000" points="2031.6652,-122 1906.3348,-122 1906.3348,-86 2031.6652,-86 2031.6652,-122"/>
<text text-anchor="middle" x="1969" y="-99.8" font-family="Times,serif" font-size="14.00" fill="#000000">CockpitComponent</text>
</g>
<!-- CockpitComponent&#45;&gt;RemoteCenterModule -->
<g id="edge13" class="edge">
<title>CockpitComponent&#45;&gt;RemoteCenterModule</title>
<path fill="none" stroke="#000000" d="M1911.2465,-122.1985C1911.2465,-146.3563 1911.2465,-186 1911.2465,-186 1911.2465,-186 1581.5239,-186 1581.5239,-186"/>
<polygon fill="#000000" stroke="#000000" points="1581.5239,-182.5001 1571.5239,-186 1581.5239,-189.5001 1581.5239,-182.5001"/>
</g>
<!-- RemoteCenterComponent -->
<g id="node15" class="node">
<title>RemoteCenterComponent</title>
<polygon fill="#ffffb3" stroke="#000000" points="1888.1965,-122 1725.8035,-122 1725.8035,-86 1888.1965,-86 1888.1965,-122"/>
<text text-anchor="middle" x="1807" y="-99.8" font-family="Times,serif" font-size="14.00" fill="#000000">RemoteCenterComponent</text>
</g>
<!-- RemoteCenterComponent&#45;&gt;RemoteCenterModule -->
<g id="edge14" class="edge">
<title>RemoteCenterComponent&#45;&gt;RemoteCenterModule</title>
<path fill="none" stroke="#000000" d="M1781.1625,-122.0267C1781.1625,-142.7672 1781.1625,-174 1781.1625,-174 1781.1625,-174 1581.3352,-174 1581.3352,-174"/>
<polygon fill="#000000" stroke="#000000" points="1581.3352,-170.5001 1571.3352,-174 1581.3352,-177.5001 1581.3352,-170.5001"/>
</g>
<!-- RemoteCenterRoutingModule -->
<g id="node17" class="node">
<title>RemoteCenterRoutingModule</title>
<polygon fill="#8dd3c7" stroke="#000000" points="1701.5322,-122 1698.5322,-126 1677.5322,-126 1674.5322,-122 1516.4678,-122 1516.4678,-86 1701.5322,-86 1701.5322,-122"/>
<text text-anchor="middle" x="1609" y="-99.8" font-family="Times,serif" font-size="14.00" fill="#000000">RemoteCenterRoutingModule</text>
</g>
<!-- RemoteCenterRoutingModule&#45;&gt;RemoteCenterModule -->
<g id="edge15" class="edge">
<title>RemoteCenterRoutingModule&#45;&gt;RemoteCenterModule</title>
<path fill="none" stroke="#000000" d="M1543.7206,-122.0109C1543.7206,-122.0109 1543.7206,-151.855 1543.7206,-151.855"/>
<polygon fill="#000000" stroke="#000000" points="1540.2206,-151.8549 1543.7206,-161.855 1547.2206,-151.855 1540.2206,-151.8549"/>
</g>
<!-- ObsWebsocketService -->
<g id="node18" class="node">
<title>ObsWebsocketService</title>
<ellipse fill="#fdb462" stroke="#000000" cx="1394" cy="-104" rx="98.3946" ry="18"/>
<text text-anchor="middle" x="1394" y="-99.8" font-family="Times,serif" font-size="14.00" fill="#000000">ObsWebsocketService</text>
</g>
<!-- ObsWebsocketService&#45;&gt;RemoteCenterModule -->
<g id="edge17" class="edge">
<title>ObsWebsocketService&#45;&gt;RemoteCenterModule</title>
<path fill="none" stroke="#000000" d="M1461.6202,-117.2382C1461.6202,-117.2382 1461.6202,-151.7901 1461.6202,-151.7901"/>
<polygon fill="#000000" stroke="#000000" points="1458.1203,-151.79 1461.6202,-161.7901 1465.1203,-151.7901 1458.1203,-151.79"/>
</g>
<!-- WebsocketService -->
<g id="node19" class="node">
<title>WebsocketService</title>
<ellipse fill="#fdb462" stroke="#000000" cx="1195" cy="-104" rx="82.7839" ry="18"/>
<text text-anchor="middle" x="1195" y="-99.8" font-family="Times,serif" font-size="14.00" fill="#000000">WebsocketService</text>
</g>
<!-- WebsocketService&#45;&gt;SharedModule -->
<g id="edge29" class="edge">
<title>WebsocketService&#45;&gt;SharedModule</title>
<path fill="none" stroke="#000000" d="M1141.9571,-117.8824C1141.9571,-137.5072 1141.9571,-171 1141.9571,-171 1141.9571,-171 1056.4806,-171 1056.4806,-171"/>
<polygon fill="#000000" stroke="#000000" points="1056.4806,-167.5001 1046.4806,-171 1056.4805,-174.5001 1056.4806,-167.5001"/>
</g>
<!-- WebsocketService&#45;&gt;RemoteCenterModule -->
<g id="edge18" class="edge">
<title>WebsocketService&#45;&gt;RemoteCenterModule</title>
<path fill="none" stroke="#000000" d="M1244.7458,-118.6118C1244.7458,-137.2227 1244.7458,-167 1244.7458,-167 1244.7458,-167 1420.6385,-167 1420.6385,-167"/>
<polygon fill="#000000" stroke="#000000" points="1420.6385,-170.5001 1430.6385,-167 1420.6384,-163.5001 1420.6385,-170.5001"/>
</g>
<!-- ArrayFilterPipe -->
<g id="node20" class="node">
<title>ArrayFilterPipe</title>
<polygon fill="#ffffb3" stroke="#000000" points="2128.8599,-266 2025.1401,-266 2025.1401,-230 2128.8599,-230 2128.8599,-266"/>
<text text-anchor="middle" x="2077" y="-243.8" font-family="Times,serif" font-size="14.00" fill="#000000">ArrayFilterPipe</text>
</g>
<!-- ArrayFilterPipe&#45;&gt;SharedModule -->
<g id="edge19" class="edge">
<title>ArrayFilterPipe&#45;&gt;SharedModule</title>
<path fill="none" stroke="#000000" d="M2080.3812,-229.9561C2080.3812,-217.4367 2080.3812,-203 2080.3812,-203 2080.3812,-203 1009.3028,-203 1009.3028,-203 1009.3028,-203 1009.3028,-202.5122 1009.3028,-202.5122"/>
<polygon fill="#000000" stroke="#000000" points="1012.803,-208.1222 1009.3028,-198.1223 1005.803,-208.1224 1012.803,-208.1222"/>
</g>
<!-- BytesPipe -->
<g id="node21" class="node">
<title>BytesPipe</title>
<polygon fill="#ffffb3" stroke="#000000" points="2007.2745,-266 1934.7255,-266 1934.7255,-230 2007.2745,-230 2007.2745,-266"/>
<text text-anchor="middle" x="1971" y="-243.8" font-family="Times,serif" font-size="14.00" fill="#000000">BytesPipe</text>
</g>
<!-- BytesPipe&#45;&gt;SharedModule -->
<g id="edge20" class="edge">
<title>BytesPipe&#45;&gt;SharedModule</title>
<path fill="none" stroke="#000000" d="M1971,-229.8726C1971,-219.2891 1971,-208 1971,-208 1971,-208 997,-208 997,-208 997,-208 997,-207.0207 997,-207.0207"/>
<polygon fill="#000000" stroke="#000000" points="1000.5001,-208.2069 997,-198.207 993.5001,-208.207 1000.5001,-208.2069"/>
</g>
<!-- DurationPipe -->
<g id="node22" class="node">
<title>DurationPipe</title>
<polygon fill="#ffffb3" stroke="#000000" points="1916.1515,-266 1825.8485,-266 1825.8485,-230 1916.1515,-230 1916.1515,-266"/>
<text text-anchor="middle" x="1871" y="-243.8" font-family="Times,serif" font-size="14.00" fill="#000000">DurationPipe</text>
</g>
<!-- DurationPipe&#45;&gt;SharedModule -->
<g id="edge21" class="edge">
<title>DurationPipe&#45;&gt;SharedModule</title>
<path fill="none" stroke="#000000" d="M1856.8864,-229.5782C1856.8864,-220.7209 1856.8864,-212 1856.8864,-212 1856.8864,-212 984.6972,-212 984.6972,-212 984.6972,-212 984.6972,-208.2434 984.6972,-208.2434"/>
<polygon fill="#000000" stroke="#000000" points="988.1973,-208.2434 984.6972,-198.2434 981.1973,-208.2434 988.1973,-208.2434"/>
</g>
<!-- SearchPipe -->
<g id="node23" class="node">
<title>SearchPipe</title>
<polygon fill="#ffffb3" stroke="#000000" points="1807.4748,-266 1728.5252,-266 1728.5252,-230 1807.4748,-230 1807.4748,-266"/>
<text text-anchor="middle" x="1768" y="-243.8" font-family="Times,serif" font-size="14.00" fill="#000000">SearchPipe</text>
</g>
<!-- SearchPipe&#45;&gt;SharedModule -->
<g id="edge22" class="edge">
<title>SearchPipe&#45;&gt;SharedModule</title>
<path fill="none" stroke="#000000" d="M1754.8375,-229.9672C1754.8375,-223.1474 1754.8375,-217 1754.8375,-217 1754.8375,-217 972.3945,-217 972.3945,-217 972.3945,-217 972.3945,-208.0664 972.3945,-208.0664"/>
<polygon fill="#000000" stroke="#000000" points="975.8945,-208.0664 972.3945,-198.0664 968.8945,-208.0665 975.8945,-208.0664"/>
</g>
<!-- SlugifyPipe -->
<g id="node24" class="node">
<title>SlugifyPipe</title>
<polygon fill="#ffffb3" stroke="#000000" points="1710.1123,-266 1627.8877,-266 1627.8877,-230 1710.1123,-230 1710.1123,-266"/>
<text text-anchor="middle" x="1669" y="-243.8" font-family="Times,serif" font-size="14.00" fill="#000000">SlugifyPipe</text>
</g>
<!-- SlugifyPipe&#45;&gt;SharedModule -->
<g id="edge23" class="edge">
<title>SlugifyPipe&#45;&gt;SharedModule</title>
<path fill="none" stroke="#000000" d="M1664.8549,-229.8408C1664.8549,-224.9567 1664.8549,-221 1664.8549,-221 1664.8549,-221 960.0917,-221 960.0917,-221 960.0917,-221 960.0917,-208.1025 960.0917,-208.1025"/>
<polygon fill="#000000" stroke="#000000" points="963.5918,-208.1025 960.0917,-198.1025 956.5918,-208.1026 963.5918,-208.1025"/>
</g>
</g>
</svg>
